<svg  height = "50"  width = "150"  version = "1.1"  xmlns = "http://www.w3.org/2000/svg">
<polyline points="6,34.61 9.83,37.4 13.67,39.6 17.5,41.61 21.33,42.99 25.17,43.62 29,44 32.83,43.54 36.67,41.71 40.5,39.94 44.33,38.71 48.17,36.8 52,35.89 55.83,35.94 59.67,34.88 63.5,33.15 67.33,32.03 71.17,31.11 75,30.36 78.83,29.05 82.67,28.05 86.5,26.8 90.33,25.01 94.17,23.72 98,20.42 101.83,17.11 105.67,15.22 109.5,14 113.33,12.85 117.17,11.37 121,9.57 124.83,8.4 128.67,7.62 132.5,6.85 136.33,6.57 140.17,6.06 144,6" style="fill:none;stroke:#78BE20;stroke-width:3" />
<circle cx="144" cy="6" r="4" fill="white" stroke = "#78BE20" stroke-width="3"/>
</svg>
