<svg  height = "50"  width = "150"  version = "1.1"  xmlns = "http://www.w3.org/2000/svg">
<polyline points="6,14.14 9.83,23.09 13.67,26.6 17.5,24.02 21.33,26.21 25.17,23.34 29,33.22 32.83,42.47 36.67,44 40.5,30.91 44.33,38.81 48.17,33.67 52,33.73 55.83,37.73 59.67,25.1 63.5,30.24 67.33,30.95 71.17,27.52 75,30.64 78.83,30.1 82.67,30.96 86.5,33.94 90.33,35.24 94.17,26.43 98,22.25 101.83,21.4 105.67,23.89 109.5,24.34 113.33,19.42 117.17,14.82 121,11.77 124.83,7.68 128.67,6 132.5,8.47 136.33,10.3 140.17,6.63 144,15.36" style="fill:none;stroke:#004C97;stroke-width:3" />
<circle cx="144" cy="15.36" r="4" fill="white" stroke = "#004C97" stroke-width="3"/>
</svg>
