<svg  height = "50"  width = "150"  version = "1.1"  xmlns = "http://www.w3.org/2000/svg">
<polyline points="6,6 9.83,7.81 13.67,11.76 17.5,15.4 21.33,19.36 25.17,21.63 29,24.56 32.83,25.51 36.67,24.91 40.5,26.29 44.33,29.15 48.17,29.51 52,32.5 55.83,37.29 59.67,40.26 63.5,41.96 67.33,41.51 71.17,41.82 75,42.39 78.83,43.29 82.67,44 86.5,42.92 90.33,41.47 94.17,42.71 98,42.27 101.83,41.35 105.67,39.36 109.5,37.61 113.33,37.86 117.17,37.14 121,34.98 124.83,34.34 128.67,32.73 132.5,31.45 136.33,30.97 140.17,28.77 144,26.85" style="fill:none;stroke:#004C97;stroke-width:3" />
<circle cx="144" cy="26.85" r="4" fill="white" stroke = "#004C97" stroke-width="3"/>
</svg>
