<svg  height = "50"  width = "150"  version = "1.1"  xmlns = "http://www.w3.org/2000/svg">
<polyline points="6,39.71 9.83,41.49 13.67,42.14 17.5,43.44 21.33,44 25.17,43.94 29,42.72 32.83,41.25 36.67,38.07 40.5,35.66 44.33,33.56 48.17,30.62 52,28.72 55.83,28.8 59.67,27.76 63.5,25.59 67.33,24.96 71.17,24.22 75,24.34 78.83,22.64 82.67,21.05 86.5,19.96 90.33,18.7 94.17,17.47 98,13.72 101.83,10.61 105.67,9.68 109.5,9.6 113.33,8.69 117.17,7.62 121,6.2 124.83,6 128.67,6.43 132.5,6.14 136.33,6.54 140.17,7.51 144,8.65" style="fill:none;stroke:#009CA6;stroke-width:3" />
<circle cx="144" cy="8.65" r="4" fill="white" stroke = "#009CA6" stroke-width="3"/>
</svg>
