<svg  height = "50"  width = "150"  version = "1.1"  xmlns = "http://www.w3.org/2000/svg">
<polyline points="6,34.04 9.83,30.41 13.67,41.07 17.5,44 21.33,31.31 25.17,29.71 29,26.63 32.83,27.38 36.67,26.92 40.5,25.93 44.33,26.41 48.17,24.39 52,24.33 55.83,22.39 59.67,22.95 63.5,22.86 67.33,18.55 71.17,20.95 75,21.55 78.83,18.87 82.67,13.06 86.5,15.64 90.33,13.79 94.17,11.37 98,10.61 101.83,10.01 105.67,8.9 109.5,7.14 113.33,8.23 117.17,9.23 121,9.04 124.83,6.76 128.67,8.26 132.5,8.15 136.33,7.5 140.17,7.61 144,6" style="fill:none;stroke:#78BE20;stroke-width:3" />
<circle cx="144" cy="6" r="4" fill="white" stroke = "#78BE20" stroke-width="3"/>
</svg>
