<svg  height = "50"  width = "150"  version = "1.1"  xmlns = "http://www.w3.org/2000/svg">
<polyline points="6,44 9.83,37.72 13.67,28.8 17.5,30.01 21.33,34.66 25.17,28.57 29,25.5 32.83,26.52 36.67,23.01 40.5,35.33 44.33,22.86 48.17,26.42 52,31.98 55.83,37.87 59.67,23.91 63.5,21.34 67.33,40.04 71.17,23.32 75,21.31 78.83,23.24 82.67,22.14 86.5,21.83 90.33,20.49 94.17,18.99 98,18.95 101.83,17.77 105.67,14.26 109.5,17.47 113.33,22.83 117.17,13.58 121,12.1 124.83,6 128.67,11.99 132.5,10.19 136.33,10.8 140.17,11.92 144,12.51" style="fill:none;stroke:#CEDC00;stroke-width:3" />
<circle cx="144" cy="12.51" r="4" fill="white" stroke = "#CEDC00" stroke-width="3"/>
</svg>
