<svg  height = "50"  width = "150"  version = "1.1"  xmlns = "http://www.w3.org/2000/svg">
<polyline points="6,6 9.83,9.63 13.67,11.25 17.5,12.81 21.33,16.21 25.17,19.34 29,22.76 32.83,24.71 36.67,27.23 40.5,28.05 44.33,27.53 48.17,28.72 52,31.18 55.83,31.5 59.67,34.07 63.5,38.21 67.33,40.76 71.17,42.23 75,41.84 78.83,42.1 82.67,42.6 86.5,43.37 90.33,44 94.17,43.09 98,41.86 101.83,42.92 105.67,42.54 109.5,41.76 113.33,40.05 117.17,38.55 121,38.78 124.83,38.18 128.67,36.34 132.5,35.81 136.33,34.39 140.17,33.28 144,32.86" style="fill:none;stroke:#004C97;stroke-width:3" />
<circle cx="144" cy="32.86" r="4" fill="white" stroke = "#004C97" stroke-width="3"/>
</svg>
