<svg  height = "50"  width = "150"  version = "1.1"  xmlns = "http://www.w3.org/2000/svg">
<polyline points="6,11.48 9.83,6 13.67,7.36 17.5,14.05 21.33,15.81 25.17,21.36 29,18.12 32.83,23.89 36.67,29.91 40.5,31.59 44.33,31.43 48.17,36.53 52,29.97 55.83,21.83 59.67,30.19 63.5,34.57 67.33,36.33 71.17,35.72 75,36.38 78.83,34.89 82.67,39 86.5,43.29 90.33,44 94.17,38.84 98,41.53 101.83,39.47 105.67,39.82 109.5,41.56 113.33,36.55 117.17,39.36 121,40.06 124.83,37.81 128.67,39.86 132.5,39.74 136.33,40.63 140.17,41.27 144,41.73" style="fill:none;stroke:#004C97;stroke-width:3" />
<circle cx="144" cy="41.73" r="4" fill="white" stroke = "#004C97" stroke-width="3"/>
</svg>
