<svg  height = "50"  width = "150"  version = "1.1"  xmlns = "http://www.w3.org/2000/svg">
<polyline points="6,41.92 9.83,44 13.67,24.53 17.5,20.17 21.33,30.36 25.17,22.59 29,23.16 32.83,20.05 36.67,24.73 40.5,21.08 44.33,28.42 48.17,26.47 52,25.77 55.83,28.07 59.67,22.69 63.5,26.37 67.33,29.28 71.17,19.27 75,19.47 78.83,20.38 82.67,18.38 86.5,21.69 90.33,20.89 94.17,26.22 98,33.45 101.83,23.61 105.67,24.23 109.5,27.13 113.33,28.8 117.17,25.28 121,20.08 124.83,17.35 128.67,14.94 132.5,12.16 136.33,6.12 140.17,6.2 144,6" style="fill:none;stroke:#009CA6;stroke-width:3" />
<circle cx="144" cy="6" r="4" fill="white" stroke = "#009CA6" stroke-width="3"/>
</svg>
