<svg  height = "50"  width = "150"  version = "1.1"  xmlns = "http://www.w3.org/2000/svg">
<polyline points="6,44 9.83,35.25 13.67,28.28 17.5,26.61 21.33,23.17 25.17,21.38 29,21.03 32.83,20.28 36.67,17.91 40.5,19.06 44.33,16.96 48.17,13 52,25.85 55.83,30.59 59.67,15.1 63.5,12.11 67.33,13.11 71.17,12.12 75,12.26 78.83,10.83 82.67,11.97 86.5,9.22 90.33,11.01 94.17,10.61 98,11.37 101.83,11.48 105.67,8.89 109.5,10.84 113.33,14.65 117.17,9.09 121,6 124.83,8.97 128.67,7.07 132.5,7.01 136.33,6.23 140.17,7.5 144,8.44" style="fill:none;stroke:#E35205;stroke-width:3" />
<circle cx="144" cy="8.44" r="4" fill="white" stroke = "#E35205" stroke-width="3"/>
</svg>
