<svg  height = "50"  width = "150"  version = "1.1"  xmlns = "http://www.w3.org/2000/svg">
<polyline points="6,44 9.83,40.23 13.67,37.8 17.5,37.97 21.33,36.59 25.17,33.66 29,32.8 32.83,31.67 36.67,31.63 40.5,29.2 44.33,26.98 48.17,25.41 52,23.74 55.83,21.97 59.67,16.74 63.5,12.34 67.33,10.86 71.17,10.78 75,9.53 78.83,8.06 82.67,6.16 86.5,6 90.33,6.6 94.17,6.33 98,6.84 101.83,8.23 105.67,9.84 109.5,9.61 113.33,10.25 117.17,11.4 121,12.23 124.83,14.05 128.67,15.26 132.5,16.45 136.33,16.34 140.17,16.66 144,16.66" style="fill:none;stroke:#009CA6;stroke-width:3" />
<circle cx="144" cy="16.66" r="4" fill="white" stroke = "#009CA6" stroke-width="3"/>
</svg>
