<svg  height = "50"  width = "150"  version = "1.1"  xmlns = "http://www.w3.org/2000/svg">
<polyline points="6,21.1 9.83,30.49 13.67,20.84 17.5,6 21.33,19.55 25.17,26.82 29,29.67 32.83,27.54 36.67,29.35 40.5,27.02 44.33,35.12 48.17,42.68 52,44 55.83,33.19 59.67,39.5 63.5,34.99 67.33,35.56 71.17,38.91 75,28.48 78.83,32.68 82.67,33.29 86.5,30.45 90.33,33.07 94.17,32.54 98,33.45 101.83,35.77 105.67,36.47 109.5,29.05 113.33,25.98 117.17,25.55 121,27.45 124.83,27.73 128.67,23.53 132.5,19.72 136.33,16.82 140.17,13.36 144,12.06" style="fill:none;stroke:#004C97;stroke-width:3" />
<circle cx="144" cy="12.06" r="4" fill="white" stroke = "#004C97" stroke-width="3"/>
</svg>
