<svg  height = "50"  width = "150"  version = "1.1"  xmlns = "http://www.w3.org/2000/svg">
<polyline points="6,43.91 9.83,44 13.67,42.81 17.5,40.86 21.33,39.59 25.17,38.47 29,37.5 32.83,35.94 36.67,34.76 40.5,33.3 44.33,31.29 48.17,29.8 52,25.99 55.83,22.15 59.67,19.89 63.5,18.47 67.33,17.14 71.17,15.43 75,13.43 78.83,12.15 82.67,11.26 86.5,10.42 90.33,10.06 94.17,9.43 98,9.36 101.83,8.55 105.67,8.47 109.5,8.6 113.33,8.03 117.17,8.27 121,8.7 124.83,8.68 128.67,8.33 132.5,8.12 136.33,7.55 140.17,6.98 144,6" style="fill:none;stroke:#78BE20;stroke-width:3" />
<circle cx="144" cy="6" r="4" fill="white" stroke = "#78BE20" stroke-width="3"/>
</svg>
