<svg  height = "50"  width = "150"  version = "1.1"  xmlns = "http://www.w3.org/2000/svg">
<polyline points="6,32.14 9.83,26.6 13.67,39.73 17.5,29.75 21.33,30.47 25.17,26.38 29,32.3 32.83,27.53 36.67,37.13 40.5,34.55 44.33,34.06 48.17,37.17 52,29.7 55.83,34.56 59.67,38.36 63.5,25.48 67.33,25.73 71.17,26.8 75,24.11 78.83,28.23 82.67,27.41 86.5,34.2 90.33,44 94.17,31.6 98,31.73 101.83,35.61 105.67,37.81 109.5,33.31 113.33,26.62 117.17,23.06 121,19.97 124.83,16.41 128.67,8.9 132.5,8.84 136.33,9.22 140.17,6 144,8.51" style="fill:none;stroke:#009CA6;stroke-width:3" />
<circle cx="144" cy="8.51" r="4" fill="white" stroke = "#009CA6" stroke-width="3"/>
</svg>
