<svg  height = "50"  width = "150"  version = "1.1"  xmlns = "http://www.w3.org/2000/svg">
<polyline points="6,6 9.83,17.64 13.67,21.79 17.5,19.27 21.33,22.05 25.17,19.3 29,30.65 32.83,42.53 36.67,44 40.5,29 44.33,38.21 48.17,32.5 52,33.52 55.83,37.85 59.67,22.72 63.5,30.17 67.33,32.23 71.17,27.76 75,32.04 78.83,31.73 82.67,33.04 86.5,36.27 90.33,37.74 94.17,28.66 98,23.83 101.83,22.58 105.67,25.44 109.5,26.83 113.33,21.51 117.17,16.67 121,13.8 124.83,9.56 128.67,8.6 132.5,11.74 136.33,14.33 140.17,10.39 144,20.01" style="fill:none;stroke:#004C97;stroke-width:3" />
<circle cx="144" cy="20.01" r="4" fill="white" stroke = "#004C97" stroke-width="3"/>
</svg>
