<svg  height = "50"  width = "150"  version = "1.1"  xmlns = "http://www.w3.org/2000/svg">
<polyline points="6,36.2 9.83,42.84 13.67,26.73 17.5,23.08 21.33,44 25.17,25.64 29,23.35 32.83,26.06 36.67,24.48 40.5,23.92 44.33,22.64 48.17,20.8 52,20.57 55.83,18.73 59.67,14.78 63.5,17.57 67.33,23.03 71.17,14.18 75,11.99 78.83,6 82.67,11.87 86.5,10 90.33,11.3 94.17,13.01 98,13.39 101.83,13.75 105.67,13.71 109.5,15.15 113.33,20.17 117.17,11.42 121,10.05 124.83,10.42 128.67,10.86 132.5,10.06 136.33,9.16 140.17,7.41 144,7.32" style="fill:none;stroke:#CEDC00;stroke-width:3" />
<circle cx="144" cy="7.32" r="4" fill="white" stroke = "#CEDC00" stroke-width="3"/>
</svg>
