<svg  height = "50"  width = "150"  version = "1.1"  xmlns = "http://www.w3.org/2000/svg">
<polyline points="6,35.81 9.83,34.62 13.67,41.02 17.5,44 21.33,34.69 25.17,31.51 29,34.73 32.83,31.52 36.67,31.03 40.5,29.15 44.33,29.95 48.17,26.62 52,28.76 55.83,28.38 59.67,27.54 63.5,26.51 67.33,25.51 71.17,24.75 75,26.91 78.83,21.74 82.67,20.84 86.5,21.53 90.33,19.36 94.17,20.31 98,19.2 101.83,19.98 105.67,20.54 109.5,18.53 113.33,18.28 117.17,18.68 121,18.13 124.83,15.57 128.67,13.2 132.5,11.8 136.33,9.72 140.17,8.22 144,6" style="fill:none;stroke:#78BE20;stroke-width:3" />
<circle cx="144" cy="6" r="4" fill="white" stroke = "#78BE20" stroke-width="3"/>
</svg>
