<svg  height = "50"  width = "150"  version = "1.1"  xmlns = "http://www.w3.org/2000/svg">
<polyline points="6,40.64 9.83,44 13.67,39.72 17.5,36.52 21.33,38.37 25.17,32.86 29,34.3 32.83,30.08 36.67,31.5 40.5,26.42 44.33,27.68 48.17,26.78 52,24.52 55.83,23.64 59.67,22.1 63.5,22.55 67.33,22.97 71.17,18.1 75,14.25 78.83,17.17 82.67,15.92 86.5,14.57 90.33,14.8 94.17,16.15 98,19.16 101.83,16.69 105.67,16.37 109.5,17.68 113.33,17.47 117.17,17.2 121,15.16 124.83,15.6 128.67,13.91 132.5,11.8 136.33,7.77 140.17,6.8 144,6" style="fill:none;stroke:#78BE20;stroke-width:3" />
<circle cx="144" cy="6" r="4" fill="white" stroke = "#78BE20" stroke-width="3"/>
</svg>
