<svg  height = "50"  width = "150"  version = "1.1"  xmlns = "http://www.w3.org/2000/svg">
<polyline points="6,26.73 9.83,32.21 13.67,22.66 17.5,6 21.33,18.82 25.17,27.56 29,27.7 32.83,25.83 36.67,26.77 40.5,29.08 44.33,33.03 48.17,43.72 52,44 55.83,35.48 59.67,34.31 63.5,42.47 67.33,30.79 71.17,40.29 75,27.79 78.83,30.36 82.67,30.75 86.5,24.43 90.33,29.12 94.17,27.24 98,27.74 101.83,29 105.67,37.8 109.5,22.41 113.33,22.03 117.17,22.43 121,24.42 124.83,25.92 128.67,22.01 132.5,19.69 136.33,22.15 140.17,20.39 144,15.44" style="fill:none;stroke:#004C97;stroke-width:3" />
<circle cx="144" cy="15.44" r="4" fill="white" stroke = "#004C97" stroke-width="3"/>
</svg>
