<svg  height = "50"  width = "150"  version = "1.1"  xmlns = "http://www.w3.org/2000/svg">
<polyline points="6,17.25 9.83,27.71 13.67,16.82 17.5,6 21.33,21.89 25.17,26.7 29,30.7 32.83,29.55 36.67,31.59 40.5,27.21 44.33,35.38 48.17,39.04 52,40.39 55.83,31.99 59.67,41.69 63.5,29.56 67.33,39.95 71.17,37.24 75,31.58 78.83,36.95 82.67,38.71 86.5,38.97 90.33,39.75 94.17,40.68 98,41.86 101.83,44 105.67,38.62 109.5,40.64 113.33,36.74 117.17,35.61 121,36.8 124.83,36.96 128.67,34.52 132.5,31.57 136.33,26.52 140.17,23.64 144,26.47" style="fill:none;stroke:#004C97;stroke-width:3" />
<circle cx="144" cy="26.47" r="4" fill="white" stroke = "#004C97" stroke-width="3"/>
</svg>
