<svg  height = "50"  width = "150"  version = "1.1"  xmlns = "http://www.w3.org/2000/svg">
<polyline points="6,10.43 9.83,21.99 13.67,22.14 17.5,19.62 21.33,20.87 25.17,23.96 29,29.25 32.83,43.7 36.67,44 40.5,31.72 44.33,29.79 48.17,42.23 52,26.57 55.83,39.09 59.67,22.28 63.5,25.72 67.33,26.28 71.17,17.8 75,24.03 78.83,21.76 82.67,22.11 86.5,22.91 90.33,34.46 94.17,15.33 98,14.95 101.83,15.17 105.67,17.79 109.5,19.83 113.33,14.71 117.17,11.69 121,15.24 124.83,12.88 128.67,6 132.5,14.27 136.33,20.68 140.17,8.68 144,8.47" style="fill:none;stroke:#004C97;stroke-width:3" />
<circle cx="144" cy="8.47" r="4" fill="white" stroke = "#004C97" stroke-width="3"/>
</svg>
