<svg  height = "50"  width = "150"  version = "1.1"  xmlns = "http://www.w3.org/2000/svg">
<polyline points="6,26.5 9.83,22.95 13.67,44 17.5,25.6 21.33,23.34 25.17,26.02 29,24.44 32.83,23.87 36.67,22.62 40.5,20.76 44.33,20.53 48.17,18.8 52,14.45 55.83,17.42 59.67,23.06 63.5,14.17 67.33,12.01 71.17,6 75,11.86 78.83,9.97 82.67,11.32 86.5,13.02 90.33,13.39 94.17,13.93 98,13.29 101.83,15.08 105.67,20.32 109.5,11.53 113.33,10.22 117.17,10.71 121,11.26 124.83,10.56 128.67,9.7 132.5,7.91 136.33,7.77 140.17,7.77 144,7.72" style="fill:none;stroke:#CEDC00;stroke-width:3" />
<circle cx="144" cy="7.72" r="4" fill="white" stroke = "#CEDC00" stroke-width="3"/>
</svg>
