<svg  height = "50"  width = "150"  version = "1.1"  xmlns = "http://www.w3.org/2000/svg">
<polyline points="6,25.3 9.83,21.69 13.67,41.45 17.5,44 21.33,22.13 25.17,21 29,17.03 32.83,19.45 36.67,20.54 40.5,17.23 44.33,22.69 48.17,20.61 52,22.35 55.83,15.69 59.67,22.43 63.5,18.25 67.33,14.61 71.17,19.97 75,20.49 78.83,18.64 82.67,8.48 86.5,15.41 90.33,12.98 94.17,9.41 98,9.79 101.83,10.93 105.67,7.67 109.5,6 113.33,7.77 117.17,10.56 121,12.29 124.83,9.15 128.67,12.85 132.5,12.53 136.33,10.15 140.17,10.3 144,9.46" style="fill:none;stroke:#009CA6;stroke-width:3" />
<circle cx="144" cy="9.46" r="4" fill="white" stroke = "#009CA6" stroke-width="3"/>
</svg>
