<svg  height = "50"  width = "150"  version = "1.1"  xmlns = "http://www.w3.org/2000/svg">
<polyline points="6,44 9.83,28.41 13.67,19.11 17.5,20.49 21.33,16.55 25.17,17.12 29,14.8 32.83,16.98 36.67,16.99 40.5,19.53 44.33,16.5 48.17,13.78 52,28.18 55.83,30.45 59.67,13.19 63.5,11.44 67.33,13.82 71.17,12.11 75,12.66 78.83,9.83 82.67,13.71 86.5,12.26 90.33,15.14 94.17,11.73 98,14.28 101.83,13.29 105.67,9.89 109.5,13.55 113.33,16.09 117.17,9.91 121,6 124.83,8.87 128.67,7.38 132.5,7.21 136.33,6.64 140.17,8.76 144,10.32" style="fill:none;stroke:#009CA6;stroke-width:3" />
<circle cx="144" cy="10.32" r="4" fill="white" stroke = "#009CA6" stroke-width="3"/>
</svg>
