<svg  height = "50"  width = "150"  version = "1.1"  xmlns = "http://www.w3.org/2000/svg">
<polyline points="6,44 9.83,40.91 13.67,40.91 17.5,39.3 21.33,38.69 25.17,36.78 29,37.55 32.83,33.97 36.67,35.28 40.5,33.97 44.33,34.07 48.17,33.01 52,29.62 55.83,30.72 59.67,32.49 63.5,27.34 67.33,22.92 71.17,25.01 75,22.36 78.83,21.27 82.67,20.07 86.5,20.48 90.33,20.45 94.17,17.64 98,18.31 101.83,19.32 105.67,19.01 109.5,15.96 113.33,15.65 117.17,15 121,13.6 124.83,13.01 128.67,10.47 132.5,8.95 136.33,6.91 140.17,7.04 144,6" style="fill:none;stroke:#78BE20;stroke-width:3" />
<circle cx="144" cy="6" r="4" fill="white" stroke = "#78BE20" stroke-width="3"/>
</svg>
