<svg  height = "50"  width = "150"  version = "1.1"  xmlns = "http://www.w3.org/2000/svg">
<polyline points="6,21.74 9.83,6 13.67,18.74 17.5,27.5 21.33,27.67 25.17,25.89 29,26.89 32.83,29.27 36.67,33.24 40.5,43.95 44.33,44 48.17,35.22 52,33.23 55.83,42.16 59.67,30.64 63.5,40.12 67.33,27.75 71.17,30.38 75,30.89 78.83,24.75 82.67,29.44 86.5,27.9 90.33,27.91 94.17,28.84 98,36.66 101.83,22.07 105.67,21.93 109.5,22.42 113.33,24.42 117.17,26.02 121,22.37 124.83,20.21 128.67,22.95 132.5,21.31 136.33,15.97 140.17,22.5 144,26.35" style="fill:none;stroke:#004C97;stroke-width:3" />
<circle cx="144" cy="26.35" r="4" fill="white" stroke = "#004C97" stroke-width="3"/>
</svg>
