<svg  height = "50"  width = "150"  version = "1.1"  xmlns = "http://www.w3.org/2000/svg">
<polyline points="6,22.15 9.83,30.96 13.67,20.1 17.5,6 21.33,21.38 25.17,28.27 29,30.72 32.83,29.2 36.67,30.86 40.5,29.24 44.33,36 48.17,43.07 52,44 55.83,35.01 59.67,40.41 63.5,36.69 67.33,37.77 71.17,40.41 75,31.31 78.83,35.74 82.67,36.99 86.5,34.29 90.33,36.89 94.17,36.63 98,37.57 101.83,39.46 105.67,40.09 109.5,34.45 113.33,31.88 117.17,31.36 121,32.99 124.83,33.76 128.67,30.49 132.5,27.64 136.33,25.68 140.17,23.14 144,22.62" style="fill:none;stroke:#004C97;stroke-width:3" />
<circle cx="144" cy="22.62" r="4" fill="white" stroke = "#004C97" stroke-width="3"/>
</svg>
