<svg  height = "50"  width = "150"  version = "1.1"  xmlns = "http://www.w3.org/2000/svg">
<polyline points="6,25.85 9.83,30.06 13.67,36.17 17.5,42.82 21.33,26.68 25.17,22.95 29,44 32.83,25.61 36.67,23.35 40.5,26.06 44.33,24.66 48.17,24.03 52,22.77 55.83,20.57 59.67,20.47 63.5,18.67 67.33,14.71 71.17,17.45 75,22.94 78.83,14.14 82.67,12.02 86.5,6 90.33,12.12 94.17,10.17 98,11.5 101.83,12.56 105.67,13.18 109.5,13.57 113.33,13.59 117.17,14.95 121,19.83 124.83,11.12 128.67,9.73 132.5,9.98 136.33,10.54 140.17,9.66 144,8.91" style="fill:none;stroke:#CEDC00;stroke-width:3" />
<circle cx="144" cy="8.91" r="4" fill="white" stroke = "#CEDC00" stroke-width="3"/>
</svg>
