<svg  height = "50"  width = "150"  version = "1.1"  xmlns = "http://www.w3.org/2000/svg">
<polyline points="6,42.12 9.83,39.69 13.67,31.11 17.5,36.06 21.33,38.67 25.17,31.22 29,43 32.83,38.12 36.67,41.83 40.5,27.97 44.33,44 48.17,32.88 52,25.77 55.83,37.25 59.67,38.59 63.5,34.22 67.33,12.28 71.17,27.13 75,21.62 78.83,13.58 82.67,14.2 86.5,17.62 90.33,12.04 94.17,6 98,11.23 101.83,16.95 105.67,21.18 109.5,14.05 113.33,22.74 117.17,21.84 121,16.92 124.83,17.01 128.67,14.85 132.5,13.52 136.33,7.46 140.17,14.17 144,18.01" style="fill:none;stroke:#009CA6;stroke-width:3" />
<circle cx="144" cy="18.01" r="4" fill="white" stroke = "#009CA6" stroke-width="3"/>
</svg>
