<svg  height = "50"  width = "150"  version = "1.1"  xmlns = "http://www.w3.org/2000/svg">
<polyline points="6,28.62 9.83,27.96 13.67,41.85 17.5,44 21.33,24.42 25.17,20.01 29,30.35 32.83,22.58 36.67,23.24 40.5,20.15 44.33,24.91 48.17,21.38 52,28.96 55.83,26.4 59.67,25.54 63.5,27.99 67.33,22.61 71.17,26.31 75,29.36 78.83,19.26 82.67,19.49 86.5,20.51 90.33,18.58 94.17,22.05 98,21.48 101.83,26.1 105.67,33.12 109.5,23.4 113.33,24.2 117.17,26.95 121,28.61 124.83,24.99 128.67,19.68 132.5,16.96 136.33,14.48 140.17,11.78 144,6" style="fill:none;stroke:#009CA6;stroke-width:3" />
<circle cx="144" cy="6" r="4" fill="white" stroke = "#009CA6" stroke-width="3"/>
</svg>
