<svg  height = "50"  width = "150"  version = "1.1"  xmlns = "http://www.w3.org/2000/svg">
<polyline points="6,41.84 9.83,44 13.67,23.29 17.5,20.8 21.33,23.09 25.17,20.93 29,21.79 32.83,18.55 36.67,23.58 40.5,20.76 44.33,24.92 48.17,20.53 52,24.24 55.83,22.79 59.67,18.34 63.5,22.93 67.33,24.49 71.17,18.99 75,13.52 78.83,17.64 82.67,15.37 86.5,14.84 90.33,14.6 94.17,17.78 98,19.56 101.83,14.09 105.67,15.3 109.5,18.14 113.33,19.85 117.17,16.56 121,16.36 124.83,14.88 128.67,12.53 132.5,11.27 136.33,8.02 140.17,7.65 144,6" style="fill:none;stroke:#009CA6;stroke-width:3" />
<circle cx="144" cy="6" r="4" fill="white" stroke = "#009CA6" stroke-width="3"/>
</svg>
