<svg  height = "50"  width = "150"  version = "1.1"  xmlns = "http://www.w3.org/2000/svg">
<polyline points="6,37.75 9.83,44 13.67,21.89 17.5,17.48 21.33,18.6 25.17,17.29 29,17.45 32.83,15.27 36.67,17.26 40.5,12.54 44.33,15.8 48.17,15.06 52,16.46 55.83,16.38 59.67,12.31 63.5,15.28 67.33,19.58 71.17,13.5 75,8.48 78.83,12.83 82.67,10.07 86.5,9.67 90.33,9.26 94.17,11.28 98,12.62 101.83,9.86 105.67,11.7 109.5,14.26 113.33,15.15 117.17,12.12 121,13 124.83,12.73 128.67,11.34 132.5,11.14 136.33,8.67 140.17,7.72 144,6" style="fill:none;stroke:#E35205;stroke-width:3" />
<circle cx="144" cy="6" r="4" fill="white" stroke = "#E35205" stroke-width="3"/>
</svg>
