<svg  height = "50"  width = "150"  version = "1.1"  xmlns = "http://www.w3.org/2000/svg">
<polyline points="6,40.54 9.83,35.29 13.67,40.24 17.5,35.67 21.33,37.55 25.17,30.74 29,41.14 32.83,35.18 36.67,44 40.5,34.91 44.33,42.92 48.17,39.35 52,30.27 55.83,39.73 59.67,43.15 63.5,31.64 67.33,20.37 71.17,28.87 75,24.06 78.83,22.82 82.67,22.55 86.5,29.2 90.33,33.31 94.17,21.27 98,24.09 101.83,29.86 105.67,33.65 109.5,26.71 113.33,26.45 117.17,23.43 121,18.65 124.83,16.15 128.67,9.63 132.5,8.89 136.33,6 140.17,7.19 144,11" style="fill:none;stroke:#009CA6;stroke-width:3" />
<circle cx="144" cy="11" r="4" fill="white" stroke = "#009CA6" stroke-width="3"/>
</svg>
