<svg  height = "50"  width = "150"  version = "1.1"  xmlns = "http://www.w3.org/2000/svg">
<polyline points="6,44 9.83,37.93 13.67,33.16 17.5,32.23 21.33,29.89 25.17,28.76 29,28.65 32.83,28.18 36.67,26.54 40.5,27.43 44.33,25.88 48.17,22.99 52,32.21 55.83,35.42 59.67,24.06 63.5,21.69 67.33,21.8 71.17,20.47 75,19.96 78.83,18.52 82.67,18.95 86.5,16.53 90.33,17.21 94.17,16.29 98,16.22 101.83,15.78 105.67,13.36 109.5,14.28 113.33,16.27 117.17,11.31 121,8.16 124.83,9.85 128.67,7.9 132.5,7.32 136.33,6 140.17,6.21 144,6.19" style="fill:none;stroke:#78BE20;stroke-width:3" />
<circle cx="144" cy="6.19" r="4" fill="white" stroke = "#78BE20" stroke-width="3"/>
</svg>
