<svg  height = "50"  width = "150"  version = "1.1"  xmlns = "http://www.w3.org/2000/svg">
<polyline points="6,41.82 9.83,38.3 13.67,40.39 17.5,44 21.33,39.49 25.17,36.14 29,38.21 32.83,32.3 36.67,33.84 40.5,29.5 44.33,30.97 48.17,25.67 52,27.28 55.83,26.17 59.67,23.46 63.5,22.7 67.33,21.1 71.17,21.59 75,22.22 78.83,16.93 82.67,12.95 86.5,16.13 90.33,14.83 94.17,13.42 98,14 101.83,15.15 105.67,17.8 109.5,15.37 113.33,15.1 117.17,16.44 121,16.29 124.83,15.72 128.67,13.49 132.5,13.96 136.33,11.93 140.17,9.69 144,6" style="fill:none;stroke:#78BE20;stroke-width:3" />
<circle cx="144" cy="6" r="4" fill="white" stroke = "#78BE20" stroke-width="3"/>
</svg>
