<svg  height = "50"  width = "150"  version = "1.1"  xmlns = "http://www.w3.org/2000/svg">
<polyline points="6,25.91 9.83,23.48 13.67,41.51 17.5,44 21.33,22.07 25.17,19.34 29,21.87 32.83,19.64 36.67,20.6 40.5,17.22 44.33,22.64 48.17,19.77 52,24.34 55.83,19.25 59.67,22.78 63.5,21.49 67.33,16.84 71.17,21.69 75,23.42 78.83,17.61 82.67,11.78 86.5,16.3 90.33,13.98 94.17,13.52 98,13.47 101.83,16.3 105.67,17.68 109.5,12.15 113.33,13.56 117.17,16.48 121,18.27 124.83,14.74 128.67,14.4 132.5,12.94 136.33,10.38 140.17,9.2 144,6" style="fill:none;stroke:#009CA6;stroke-width:3" />
<circle cx="144" cy="6" r="4" fill="white" stroke = "#009CA6" stroke-width="3"/>
</svg>
