<svg  height = "50"  width = "150"  version = "1.1"  xmlns = "http://www.w3.org/2000/svg">
<polyline points="6,41.33 9.83,44 13.67,35.27 17.5,32.29 21.33,35.27 25.17,32.24 29,31.74 32.83,29.95 36.67,30.67 40.5,27.49 44.33,29.45 48.17,29.36 52,28.76 55.83,27.62 59.67,26.67 63.5,25.94 67.33,27.91 71.17,23.04 75,22.16 78.83,22.77 82.67,20.71 86.5,21.52 90.33,20.47 94.17,21.53 98,22.28 101.83,20.24 105.67,19.91 109.5,20.33 113.33,19.93 117.17,17.66 121,15.56 124.83,14.32 128.67,12.46 132.5,11.12 136.33,9.02 140.17,7.35 144,6" style="fill:none;stroke:#78BE20;stroke-width:3" />
<circle cx="144" cy="6" r="4" fill="white" stroke = "#78BE20" stroke-width="3"/>
</svg>
