<svg  height = "50"  width = "150"  version = "1.1"  xmlns = "http://www.w3.org/2000/svg">
<polyline points="6,20.04 9.83,6 13.67,21.27 17.5,28.35 21.33,30.78 25.17,29.27 29,30.94 32.83,29.32 36.67,36.09 40.5,43.22 44.33,44 48.17,35 52,40.23 55.83,36.74 59.67,37.72 63.5,40.47 67.33,31.36 71.17,35.81 75,37.05 78.83,34.4 82.67,36.95 86.5,36.8 90.33,37.44 94.17,39.42 98,39.88 101.83,34.33 105.67,31.85 109.5,31.33 113.33,32.99 117.17,33.81 121,30.63 124.83,27.73 128.67,26 132.5,23.46 136.33,22.72 140.17,24.61 144,25.64" style="fill:none;stroke:#004C97;stroke-width:3" />
<circle cx="144" cy="25.64" r="4" fill="white" stroke = "#004C97" stroke-width="3"/>
</svg>
