<svg  height = "50"  width = "150"  version = "1.1"  xmlns = "http://www.w3.org/2000/svg">
<polyline points="6,34.91 9.83,32.47 13.67,41.05 17.5,44 21.33,32.97 25.17,30.59 29,30.6 32.83,29.41 36.67,28.93 40.5,27.5 44.33,28.15 48.17,25.49 52,26.5 55.83,25.33 59.67,25.2 63.5,24.65 67.33,21.96 71.17,22.81 75,24.18 78.83,20.27 82.67,16.87 86.5,18.53 90.33,16.52 94.17,15.75 98,14.82 101.83,14.9 105.67,14.61 109.5,12.72 113.33,13.16 117.17,13.86 121,13.49 124.83,11.08 128.67,10.68 132.5,9.94 136.33,8.59 140.17,7.91 144,6" style="fill:none;stroke:#78BE20;stroke-width:3" />
<circle cx="144" cy="6" r="4" fill="white" stroke = "#78BE20" stroke-width="3"/>
</svg>
