<svg  height = "50"  width = "150"  version = "1.1"  xmlns = "http://www.w3.org/2000/svg">
<polyline points="6,43.8 9.83,44 13.67,42.35 17.5,38.86 21.33,37.83 25.17,36.49 29,36.44 32.83,33.55 36.67,30.89 40.5,29.02 44.33,27.03 48.17,24.92 52,18.7 55.83,13.46 59.67,11.71 63.5,11.63 67.33,10.16 71.17,8.42 75,6.17 78.83,6 82.67,6.73 86.5,6.42 90.33,7.04 94.17,8.73 98,10.69 101.83,10.44 105.67,11.22 109.5,12.63 113.33,13.66 117.17,15.93 121,17.48 124.83,18.99 128.67,18.99 132.5,19.49 136.33,19.63 140.17,18.54 144,16.64" style="fill:none;stroke:#009CA6;stroke-width:3" />
<circle cx="144" cy="16.64" r="4" fill="white" stroke = "#009CA6" stroke-width="3"/>
</svg>
