<svg  height = "50"  width = "150"  version = "1.1"  xmlns = "http://www.w3.org/2000/svg">
<polyline points="6,23.23 9.83,18.08 13.67,37.09 17.5,44 21.33,20.27 25.17,15.53 29,16.8 32.83,15.45 36.67,15.67 40.5,13.38 44.33,15.59 48.17,10.65 52,14.22 55.83,13.06 59.67,14.16 63.5,14.37 67.33,10.02 71.17,13.23 75,17.91 78.83,11.4 82.67,6 86.5,10.81 90.33,7.91 94.17,7.61 98,7.23 101.83,8.97 105.67,9.92 109.5,7.23 113.33,9.34 117.17,12 121,12.94 124.83,9.67 128.67,10.55 132.5,10.33 136.33,8.87 140.17,8.79 144,6.28" style="fill:none;stroke:#E35205;stroke-width:3" />
<circle cx="144" cy="6.28" r="4" fill="white" stroke = "#E35205" stroke-width="3"/>
</svg>
