<svg  height = "50"  width = "150"  version = "1.1"  xmlns = "http://www.w3.org/2000/svg">
<polyline points="6,44 9.83,40.35 13.67,39.27 17.5,37.87 21.33,37.82 25.17,34.79 29,32.01 32.83,30.06 36.67,27.99 40.5,25.78 44.33,19.27 48.17,13.79 52,11.97 55.83,11.88 59.67,10.35 63.5,8.53 67.33,6.18 71.17,6 75,6.76 78.83,6.45 82.67,7.09 86.5,8.86 90.33,10.91 94.17,10.66 98,11.47 101.83,12.95 105.67,14.03 109.5,16.41 113.33,18.04 117.17,19.62 121,19.65 124.83,20.2 128.67,20.38 132.5,19.26 136.33,17.3 140.17,16.86 144,17.03" style="fill:none;stroke:#009CA6;stroke-width:3" />
<circle cx="144" cy="17.03" r="4" fill="white" stroke = "#009CA6" stroke-width="3"/>
</svg>
