<svg  height = "50"  width = "150"  version = "1.1"  xmlns = "http://www.w3.org/2000/svg">
<polyline points="6,41.3 9.83,44 13.67,33.57 17.5,31.33 21.33,31.31 25.17,30.16 29,29.69 32.83,28.32 36.67,28.89 40.5,26.33 44.33,27.25 48.17,26.3 52,26.36 55.83,25.71 59.67,23.16 63.5,23.96 67.33,25.2 71.17,21.49 75,18.27 78.83,19.79 82.67,17.88 86.5,17.11 90.33,16.2 94.17,16.48 98,16.43 101.83,14.53 105.67,14.88 109.5,15.58 113.33,15.32 117.17,13.12 121,12.86 124.83,12.23 128.67,11.04 132.5,10.45 136.33,8.59 140.17,7.49 144,6" style="fill:none;stroke:#78BE20;stroke-width:3" />
<circle cx="144" cy="6" r="4" fill="white" stroke = "#78BE20" stroke-width="3"/>
</svg>
