<svg  height = "50"  width = "150"  version = "1.1"  xmlns = "http://www.w3.org/2000/svg">
<polyline points="6,44 9.83,41.79 13.67,37.64 17.5,38.54 21.33,37.98 25.17,36.6 29,37.18 32.83,34.36 36.67,34.25 40.5,31.69 44.33,32.69 48.17,32.11 52,26.74 55.83,29.9 59.67,30.73 63.5,26.99 67.33,19.23 71.17,22.64 75,20.11 78.83,16.81 82.67,15.77 86.5,15.09 90.33,13.91 94.17,11 98,13.04 101.83,14.34 105.67,14.23 109.5,11.12 113.33,13.37 117.17,13.51 121,12.96 124.83,13.33 128.67,11.05 132.5,10.26 136.33,7.93 140.17,8.37 144,6" style="fill:none;stroke:#78BE20;stroke-width:3" />
<circle cx="144" cy="6" r="4" fill="white" stroke = "#78BE20" stroke-width="3"/>
</svg>
