<svg  height = "50"  width = "150"  version = "1.1"  xmlns = "http://www.w3.org/2000/svg">
<polyline points="6,41.26 9.83,44 13.67,31.91 17.5,30.4 21.33,27.44 25.17,28.12 29,27.7 32.83,26.73 36.67,27.15 40.5,25.19 44.33,25.1 48.17,23.3 52,24.01 55.83,23.84 59.67,19.74 63.5,22.02 67.33,22.56 71.17,19.98 75,14.48 78.83,16.88 82.67,15.12 86.5,12.8 90.33,12.04 94.17,11.55 98,10.71 101.83,8.94 105.67,9.95 109.5,10.93 113.33,10.8 117.17,8.67 121,10.22 124.83,10.18 128.67,9.65 132.5,9.78 136.33,8.17 140.17,7.62 144,6" style="fill:none;stroke:#78BE20;stroke-width:3" />
<circle cx="144" cy="6" r="4" fill="white" stroke = "#78BE20" stroke-width="3"/>
</svg>
