<svg  height = "50"  width = "150"  version = "1.1"  xmlns = "http://www.w3.org/2000/svg">
<polyline points="6,41.78 9.83,44 13.67,22.27 17.5,21.28 21.33,17.27 25.17,19.58 29,20.66 32.83,17.3 36.67,22.61 40.5,20.45 44.33,22.07 48.17,15.73 52,22.97 55.83,18.53 59.67,14.83 63.5,20.16 67.33,20.64 71.17,18.75 75,8.75 78.83,15.44 82.67,12.96 86.5,9.37 90.33,9.58 94.17,11.04 98,8.47 101.83,6.49 105.67,8.17 109.5,10.96 113.33,12.7 117.17,9.6 121,13.38 124.83,12.91 128.67,10.6 132.5,10.57 136.33,9.54 140.17,8.8 144,6" style="fill:none;stroke:#009CA6;stroke-width:3" />
<circle cx="144" cy="6" r="4" fill="white" stroke = "#009CA6" stroke-width="3"/>
</svg>
