<svg  height = "50"  width = "150"  version = "1.1"  xmlns = "http://www.w3.org/2000/svg">
<polyline points="6,20.83 9.83,6 13.67,19.44 17.5,26.93 21.33,29.76 25.17,27.63 29,29.44 32.83,27.11 36.67,35.22 40.5,42.86 44.33,44 48.17,33.19 52,39.37 55.83,35.09 59.67,35.53 63.5,39.01 67.33,28.55 71.17,32.77 75,33.36 78.83,30.57 82.67,33.13 86.5,32.73 90.33,33.26 94.17,35.76 98,36.31 101.83,28.95 105.67,25.97 109.5,25.54 113.33,27.51 117.17,27.88 121,23.82 124.83,19.97 128.67,17.39 132.5,13.94 136.33,12.35 140.17,14.4 144,15.23" style="fill:none;stroke:#004C97;stroke-width:3" />
<circle cx="144" cy="15.23" r="4" fill="white" stroke = "#004C97" stroke-width="3"/>
</svg>
