<svg  height = "50"  width = "150"  version = "1.1"  xmlns = "http://www.w3.org/2000/svg">
<polyline points="6,44 9.83,42.09 13.67,41.19 17.5,41.27 21.33,40.15 25.17,38.32 29,37.12 32.83,36.06 36.67,35.15 40.5,33.68 44.33,32.57 48.17,31.19 52,29.3 55.83,27.88 59.67,24.29 63.5,20.67 67.33,18.53 71.17,17.18 75,15.92 78.83,14.31 82.67,12.41 86.5,11.19 90.33,10.34 94.17,9.52 98,9.17 101.83,8.55 105.67,8.47 109.5,7.68 113.33,7.59 117.17,7.69 121,7.11 124.83,7.25 128.67,7.55 132.5,7.44 136.33,6.99 140.17,6.67 144,6" style="fill:none;stroke:#78BE20;stroke-width:3" />
<circle cx="144" cy="6" r="4" fill="white" stroke = "#78BE20" stroke-width="3"/>
</svg>
