<svg  height = "50"  width = "150"  version = "1.1"  xmlns = "http://www.w3.org/2000/svg">
<polyline points="6,6 9.83,7.72 13.67,12.43 17.5,14.78 21.33,13.89 25.17,13.09 29,13.11 32.83,15.7 36.67,19.39 40.5,26.31 44.33,28.72 48.17,34.46 52,34.68 55.83,33.3 59.67,31.7 63.5,32.45 67.33,35.37 71.17,36.32 75,33.07 78.83,31 82.67,30.05 86.5,33.75 90.33,37.85 94.17,39.02 98,37.92 101.83,35.37 105.67,35.17 109.5,39.24 113.33,35.58 117.17,33.63 121,27.64 124.83,30.82 128.67,35.31 132.5,39.86 136.33,44 140.17,40.97 144,40.81" style="fill:none;stroke:#004C97;stroke-width:3" />
<circle cx="144" cy="40.81" r="4" fill="white" stroke = "#004C97" stroke-width="3"/>
</svg>
