<svg  height = "50"  width = "150"  version = "1.1"  xmlns = "http://www.w3.org/2000/svg">
<polyline points="6,26.81 9.94,24.52 13.89,21.94 17.83,23.43 21.77,28.8 25.71,30.63 29.66,25.01 33.6,21.53 37.54,19.97 41.49,26.47 45.43,33.67 49.37,35.64 53.31,33.73 57.26,29.15 61.2,28.75 65.14,35.88 69.09,29.26 73.03,25.65 76.97,14.96 80.91,20.9 84.86,28.98 88.8,37.28 92.74,44 96.69,38.1 100.63,37.24 104.57,35.37 108.51,35.18 112.46,31.26 116.4,24.43 120.34,20.49 124.29,13.47 128.23,12.37 132.17,6 136.11,7.82 140.06,6.49 144,11.31" style="fill:none;stroke:#004C97;stroke-width:3" />
<circle cx="144" cy="11.31" r="4" fill="white" stroke = "#004C97" stroke-width="3"/>
</svg>
