<svg  height = "50"  width = "150"  version = "1.1"  xmlns = "http://www.w3.org/2000/svg">
<polyline points="6,21.92 9.83,23.41 13.67,28.79 17.5,30.62 21.33,24.99 25.17,21.51 29,19.95 32.83,26.45 36.67,33.66 40.5,35.64 44.33,33.72 48.17,29.14 52,28.74 55.83,35.87 59.67,29.25 63.5,25.63 67.33,14.94 71.17,20.88 75,28.96 78.83,37.27 82.67,44 86.5,38.1 90.33,37.23 94.17,35.37 98,35.18 101.83,31.26 105.67,24.42 109.5,20.48 113.33,13.46 117.17,12.37 121,6 124.83,7.83 128.67,6.5 132.5,11.34 136.33,10.74 140.17,13.16 144,15.76" style="fill:none;stroke:#004C97;stroke-width:3" />
<circle cx="144" cy="15.76" r="4" fill="white" stroke = "#004C97" stroke-width="3"/>
</svg>
