<svg  height = "50"  width = "150"  version = "1.1"  xmlns = "http://www.w3.org/2000/svg">
<polyline points="6,16.87 9.83,26.61 13.67,26.89 17.5,24.6 21.33,22.03 25.17,23.52 29,28.88 32.83,30.7 36.67,25.09 40.5,21.62 44.33,20.06 48.17,26.55 52,33.75 55.83,35.71 59.67,33.81 63.5,29.25 67.33,28.82 71.17,35.91 75,29.28 78.83,25.74 82.67,15.14 86.5,21.01 90.33,29.02 94.17,37.18 98,44 101.83,38.19 105.67,37.39 109.5,35.48 113.33,35.12 117.17,31.28 121,24.42 124.83,20.58 128.67,13.62 132.5,12.46 136.33,6 140.17,7.6 144,6.12" style="fill:none;stroke:#004C97;stroke-width:3" />
<circle cx="144" cy="6.12" r="4" fill="white" stroke = "#004C97" stroke-width="3"/>
</svg>
