<svg  height = "50"  width = "150"  version = "1.1"  xmlns = "http://www.w3.org/2000/svg">
<polyline points="6,15.08 9.83,6 13.67,32.12 17.5,37.62 21.33,40.48 25.17,38.9 29,40.92 32.83,39.5 36.67,40.35 40.5,38.99 44.33,40.9 48.17,41.64 52,41.53 55.83,40.92 59.67,41.28 63.5,38.73 67.33,39.07 71.17,44 75,38.81 78.83,40.22 82.67,41.33 86.5,36.45 90.33,38.19 94.17,36.01 98,36.03 101.83,37.23 105.67,36.32 109.5,38.05 113.33,33.38 117.17,33.44 121,32.49 124.83,35.03 128.67,33.21 132.5,35.7 136.33,36.72 140.17,35.84 144,35.79" style="fill:none;stroke:#13345E;stroke-width:3" />
<circle cx="144" cy="35.79" r="4" fill="white" stroke = "#13345E" stroke-width="3"/>
</svg>
