<svg  height = "50"  width = "150"  version = "1.1"  xmlns = "http://www.w3.org/2000/svg">
<polyline points="6,17.13 9.83,6 13.67,30.49 17.5,36.8 21.33,39.71 25.17,38.05 29,40.09 32.83,38.53 36.67,41.21 40.5,42.31 44.33,44 48.17,41.86 52,43.35 55.83,41.83 59.67,42.41 63.5,41.28 67.33,38.81 71.17,43.9 75,40.32 78.83,40.59 82.67,42.21 86.5,38.45 90.33,39.96 94.17,38.9 98,39.06 101.83,38.3 105.67,36.86 109.5,38.02 113.33,34.96 117.17,35.26 121,33.58 124.83,34.64 128.67,32.73 132.5,33.87 136.33,34.42 140.17,34.32 144,34.59" style="fill:none;stroke:#D9D9D6;stroke-width:3" />
<circle cx="144" cy="34.59" r="4" fill="white" stroke = "#D9D9D6" stroke-width="3"/>
</svg>
