<svg  height = "50"  width = "150"  version = "1.1"  xmlns = "http://www.w3.org/2000/svg">
<polyline points="6,25.91 9.83,18.24 13.67,14.95 17.5,6 21.33,32.12 25.17,37.67 29,40.49 32.83,38.9 36.67,41.01 40.5,39.54 44.33,40.41 48.17,39.04 52,40.77 55.83,41.66 59.67,41.53 63.5,40.98 67.33,41.31 71.17,38.74 75,39.03 78.83,44 82.67,38.87 86.5,40.23 90.33,41.31 94.17,36.42 98,38 101.83,35.97 105.67,36.03 109.5,37.27 113.33,36.36 117.17,38.03 121,33.34 124.83,33.37 128.67,32.73 132.5,35.13 136.33,33.35 140.17,35.82 144,36.5" style="fill:none;stroke:#13345E;stroke-width:3" />
<circle cx="144" cy="36.5" r="4" fill="white" stroke = "#13345E" stroke-width="3"/>
</svg>
