<svg  height = "50"  width = "150"  version = "1.1"  xmlns = "http://www.w3.org/2000/svg">
<polyline points="6,26.07 9.83,22.87 13.67,17.09 17.5,6 21.33,30.58 25.17,36.89 29,39.79 32.83,38.11 36.67,40.22 40.5,38.61 44.33,41.32 48.17,42.4 52,44 55.83,41.97 59.67,43.5 63.5,41.96 67.33,42.54 71.17,41.37 75,38.84 78.83,43.97 82.67,40.44 86.5,40.66 90.33,42.27 94.17,38.46 98,39.95 101.83,38.97 105.67,39.2 109.5,38.45 113.33,36.98 117.17,38.1 121,35.01 124.83,35.26 128.67,33.79 132.5,34.77 136.33,32.82 140.17,33.93 144,34.29" style="fill:none;stroke:#D9D9D6;stroke-width:3" />
<circle cx="144" cy="34.29" r="4" fill="white" stroke = "#D9D9D6" stroke-width="3"/>
</svg>
