<svg  height = "50"  width = "150"  version = "1.1"  xmlns = "http://www.w3.org/2000/svg">
<polyline points="6,6 9.83,23.66 13.67,32.81 17.5,27.97 21.33,34.31 25.17,29.93 29,32.74 32.83,28.52 36.67,34.55 40.5,36.98 44.33,36.67 48.17,34.65 52,34.74 55.83,27.03 59.67,28.31 63.5,44 67.33,27.68 71.17,32.21 75,35.88 78.83,20.63 82.67,26.11 86.5,19.46 90.33,19.57 94.17,23.11 98,18.7 101.83,24.8 105.67,10.37 109.5,10.77 113.33,7.85 117.17,16 121,10.51 124.83,18.44 128.67,21.62 132.5,19.08 136.33,18.93 140.17,21.46 144,28.06" style="fill:none;stroke:#13345E;stroke-width:3" />
<circle cx="144" cy="28.06" r="4" fill="white" stroke = "#13345E" stroke-width="3"/>
</svg>
