<svg  height = "50"  width = "150"  version = "1.1"  xmlns = "http://www.w3.org/2000/svg">
<polyline points="6,6 9.83,13.58 13.67,24.81 17.5,29.48 21.33,31.86 25.17,28.78 29,33.5 32.83,34.91 36.67,33.67 40.5,25.88 44.33,32.62 48.17,27.67 52,25.64 55.83,20.1 59.67,36.53 63.5,40.08 67.33,41.52 71.17,40.63 75,42.03 78.83,41.08 82.67,41.76 86.5,41.11 90.33,42.13 94.17,42.79 98,42.81 101.83,42.43 105.67,42.63 109.5,40.83 113.33,40.44 117.17,44 121,40.43 124.83,41.43 128.67,42.19 132.5,39.4 136.33,40.35 140.17,39.02 144,39.29" style="fill:none;stroke:#13345E;stroke-width:3" />
<circle cx="144" cy="39.29" r="4" fill="white" stroke = "#13345E" stroke-width="3"/>
</svg>
