<svg  height = "50"  width = "150"  version = "1.1"  xmlns = "http://www.w3.org/2000/svg">
<polyline points="6,24.29 9.83,23.83 13.67,42.37 17.5,44 21.33,23.14 25.17,22.57 29,19.18 32.83,25.86 36.67,22.11 40.5,25.58 44.33,24.8 48.17,26.7 52,26.65 55.83,25.47 59.67,29.61 63.5,29.44 67.33,25.19 71.17,26.57 75,29.03 78.83,27.72 82.67,25.56 86.5,24.57 90.33,21.56 94.17,21.91 98,18.56 101.83,16.88 105.67,11.76 109.5,10.93 113.33,12.49 117.17,12.09 121,11.39 124.83,6.14 128.67,8.8 132.5,6.12 136.33,6 140.17,7.94 144,9.12" style="fill:none;stroke:#78BE20;stroke-width:3" />
<circle cx="144" cy="9.12" r="4" fill="white" stroke = "#78BE20" stroke-width="3"/>
</svg>
