<svg  height = "50"  width = "150"  version = "1.1"  xmlns = "http://www.w3.org/2000/svg">
<polyline points="6,42.45 9.83,44 13.67,22.87 17.5,22.31 21.33,19.03 25.17,25.46 29,21.67 32.83,25.26 36.67,24.36 40.5,26.16 44.33,26.5 48.17,25.47 52,29.57 55.83,29.32 59.67,25.01 63.5,26.41 67.33,29.09 71.17,27.41 75,25.28 78.83,24.36 82.67,21.3 86.5,21.55 90.33,18.65 94.17,17.05 98,11.68 101.83,10.77 105.67,12.27 109.5,11.93 113.33,11.57 117.17,6.02 121,8.85 124.83,6.35 128.67,6.04 132.5,8.09 136.33,10.02 140.17,8.7 144,6" style="fill:none;stroke:#78BE20;stroke-width:3" />
<circle cx="144" cy="6" r="4" fill="white" stroke = "#78BE20" stroke-width="3"/>
</svg>
