<svg  height = "50"  width = "150"  version = "1.1"  xmlns = "http://www.w3.org/2000/svg">
<polyline points="6,44 9.83,36.35 13.67,27.23 17.5,23.99 21.33,23.93 25.17,23.18 29,20.52 32.83,20.52 36.67,20.22 40.5,22.17 44.33,19.76 48.17,18.61 52,41.21 55.83,42.94 59.67,18.55 63.5,17.3 67.33,14.25 71.17,20.17 75,17.15 78.83,20.28 82.67,19.88 86.5,21.37 90.33,22.84 94.17,20.95 98,26.55 101.83,25.8 105.67,21.6 109.5,22.05 113.33,27.02 117.17,22.15 121,20.99 124.83,18.94 128.67,15.87 132.5,15.75 136.33,13.85 140.17,11.62 144,6" style="fill:none;stroke:#78BE20;stroke-width:3" />
<circle cx="144" cy="6" r="4" fill="white" stroke = "#78BE20" stroke-width="3"/>
</svg>
