<svg  height = "50"  width = "150"  version = "1.1"  xmlns = "http://www.w3.org/2000/svg">
<polyline points="6,35.06 9.83,34.44 13.67,30.22 17.5,38.61 21.33,33.6 25.17,38.33 29,37.07 32.83,39.27 36.67,39.8 40.5,38.57 44.33,44 48.17,43.54 52,37.84 55.83,40.04 59.67,43.77 63.5,41.26 67.33,38.47 71.17,37.15 75,32.98 78.83,33.07 82.67,29.27 86.5,27.38 90.33,20.11 94.17,18.83 98,20.85 101.83,20.95 105.67,20.62 109.5,12.88 113.33,16.69 117.17,13.44 121,13.17 124.83,15.86 128.67,18.44 132.5,16.93 136.33,13.18 140.17,10.57 144,6" style="fill:none;stroke:#78BE20;stroke-width:3" />
<circle cx="144" cy="6" r="4" fill="white" stroke = "#78BE20" stroke-width="3"/>
</svg>
