<svg  height = "50"  width = "150"  version = "1.1"  xmlns = "http://www.w3.org/2000/svg">
<polyline points="6,44 9.83,21.01 13.67,15.48 17.5,16.02 21.33,12.13 25.17,15.3 29,12.38 32.83,15.8 36.67,16.22 40.5,14.95 44.33,14.9 48.17,13.06 52,26 55.83,29.18 59.67,11.51 63.5,7.36 67.33,16.96 71.17,10.25 75,10.18 78.83,6.96 82.67,11.33 86.5,9.46 90.33,14.43 94.17,13.41 98,12.29 101.83,14.13 105.67,10.22 109.5,13.13 113.33,17.5 117.17,6 121,7.4 124.83,7.07 128.67,6.07 132.5,9.04 136.33,7.03 140.17,11.31 144,18.37" style="fill:none;stroke:#004C97;stroke-width:3" />
<circle cx="144" cy="18.37" r="4" fill="white" stroke = "#004C97" stroke-width="3"/>
</svg>
