<svg  height = "50"  width = "150"  version = "1.1"  xmlns = "http://www.w3.org/2000/svg">
<polyline points="6,13.51 9.83,8.25 13.67,7.81 17.5,6 21.33,8.73 25.17,16.52 29,9.92 32.83,20.62 36.67,29.98 40.5,32.64 44.33,34.24 48.17,37.65 52,32.31 55.83,22.07 59.67,27.98 63.5,33.54 67.33,34.58 71.17,33.2 75,33.36 78.83,33.47 82.67,37.31 86.5,44 90.33,43.98 94.17,38.98 98,37.29 101.83,41.7 105.67,34.2 109.5,40.38 113.33,33.29 117.17,34.57 121,34.3 124.83,28.92 128.67,33.75 132.5,32.61 136.33,32.51 140.17,33.72 144,38.9" style="fill:none;stroke:#004C97;stroke-width:3" />
<circle cx="144" cy="38.9" r="4" fill="white" stroke = "#004C97" stroke-width="3"/>
</svg>
