<svg  height = "50"  width = "150"  version = "1.1"  xmlns = "http://www.w3.org/2000/svg">
<polyline points="6,27.95 9.83,25.37 13.67,22.53 17.5,22.26 21.33,41.07 25.17,44 29,17.67 32.83,11.83 36.67,25.9 40.5,15.64 44.33,16.81 48.17,13.04 52,19.57 55.83,13.98 59.67,22.84 63.5,20.09 67.33,19.06 71.17,22.42 75,15.22 78.83,20.31 82.67,24.57 86.5,11.21 90.33,11.8 94.17,13.65 98,11.27 101.83,14.94 105.67,12.43 109.5,19.59 113.33,29.23 117.17,16.2 121,17.34 124.83,21.15 128.67,23.58 132.5,18.96 136.33,12.12 140.17,8.97 144,6" style="fill:none;stroke:#004C97;stroke-width:3" />
<circle cx="144" cy="6" r="4" fill="white" stroke = "#004C97" stroke-width="3"/>
</svg>
