<svg  height = "50"  width = "150"  version = "1.1"  xmlns = "http://www.w3.org/2000/svg">
<polyline points="6,43.92 9.83,40.01 13.67,44 17.5,39.99 21.33,39.33 25.17,36.93 29,37.88 32.83,33.61 36.67,36.25 40.5,36.17 44.33,35.4 48.17,33.89 52,32.43 55.83,31.55 59.67,34.19 63.5,27.73 67.33,26.57 71.17,27.37 75,24.62 78.83,25.68 82.67,24.32 86.5,25.78 90.33,26.85 94.17,24.16 98,23.52 101.83,24.22 105.67,23.74 109.5,20.77 113.33,18 117.17,16.6 121,14.4 124.83,12.89 128.67,10.13 132.5,7.92 136.33,6.17 140.17,6 144,6.25" style="fill:none;stroke:#004C97;stroke-width:3" />
<circle cx="144" cy="6.25" r="4" fill="white" stroke = "#004C97" stroke-width="3"/>
</svg>
