<svg  height = "50"  width = "150"  version = "1.1"  xmlns = "http://www.w3.org/2000/svg">
<polyline points="6,44 9.83,41.06 13.67,34.72 17.5,32.27 21.33,30.21 25.17,28.58 29,27.97 32.83,28.06 36.67,27.03 40.5,29.52 44.33,27.31 48.17,23.88 52,33.55 55.83,35.83 59.67,24.7 63.5,23.64 67.33,20.96 71.17,21.52 75,21.26 78.83,20.43 82.67,20.65 86.5,19.04 90.33,18.88 94.17,17.22 98,17.77 101.83,17.75 105.67,14.08 109.5,16.32 113.33,17.28 117.17,14.42 121,9.26 124.83,11.59 128.67,10.17 132.5,8.24 136.33,7.46 140.17,7.07 144,6" style="fill:none;stroke:#004C97;stroke-width:3" />
<circle cx="144" cy="6" r="4" fill="white" stroke = "#004C97" stroke-width="3"/>
</svg>
