<svg  height = "50"  width = "150"  version = "1.1"  xmlns = "http://www.w3.org/2000/svg">
<polyline points="6,44 9.83,33.97 13.67,31.61 17.5,32.79 21.33,30.2 25.17,29.79 29,30.39 32.83,29.16 36.67,26.77 40.5,25.45 44.33,24.88 48.17,22.88 52,31.01 55.83,35.32 59.67,24.22 63.5,20.2 67.33,24.11 71.17,20.28 75,19.44 78.83,17.25 82.67,17.93 86.5,14.55 90.33,16.35 94.17,16.46 98,15.55 101.83,14.56 105.67,13.97 109.5,13.04 113.33,16.34 117.17,8.79 121,8.54 124.83,9.27 128.67,6.7 132.5,7.99 136.33,6 140.17,7.03 144,8.44" style="fill:none;stroke:#004C97;stroke-width:3" />
<circle cx="144" cy="8.44" r="4" fill="white" stroke = "#004C97" stroke-width="3"/>
</svg>
