<svg  height = "50"  width = "150"  version = "1.1"  xmlns = "http://www.w3.org/2000/svg">
<polyline points="6,44 9.83,34 13.67,22.45 17.5,24.34 21.33,20.51 25.17,19.29 29,17.46 32.83,18.71 36.67,18.44 40.5,23.5 44.33,18.54 48.17,15.32 52,30.23 55.83,31.79 59.67,15.43 63.5,15.37 67.33,12.74 71.17,14.49 75,15.45 78.83,12.98 82.67,16.38 86.5,15.26 90.33,16.61 94.17,11.69 98,16.67 101.83,13.77 105.67,10.85 109.5,14.91 113.33,16.11 117.17,13.79 121,6.38 124.83,11.34 128.67,9.55 132.5,7.25 136.33,7.68 140.17,8.24 144,6" style="fill:none;stroke:#004C97;stroke-width:3" />
<circle cx="144" cy="6" r="4" fill="white" stroke = "#004C97" stroke-width="3"/>
</svg>
