<svg  height = "50"  width = "150"  version = "1.1"  xmlns = "http://www.w3.org/2000/svg">
<polyline points="6,12.73 9.83,20.26 13.67,25.74 17.5,24.16 21.33,27.33 25.17,19.71 29,33.35 32.83,38.68 36.67,40.78 40.5,27.16 44.33,44 48.17,23.33 52,38.05 55.83,34.32 59.67,25.26 63.5,33.39 67.33,34.49 71.17,35.77 75,36.5 78.83,37.36 82.67,38.99 86.5,43.49 90.33,34.89 94.17,36.9 98,29.55 101.83,27.53 105.67,29.88 109.5,29.57 113.33,25.94 117.17,20.57 121,11.96 124.83,6.96 128.67,11.4 132.5,8.47 136.33,6 140.17,11.12 144,27.74" style="fill:none;stroke:#004C97;stroke-width:3" />
<circle cx="144" cy="27.74" r="4" fill="white" stroke = "#004C97" stroke-width="3"/>
</svg>
