<svg  height = "50"  width = "150"  version = "1.1"  xmlns = "http://www.w3.org/2000/svg">
<polyline points="6,37.4 9.83,36.02 13.67,34.64 17.5,33.44 21.33,40.66 25.17,44 29,33.56 32.83,30.01 36.67,33.67 40.5,30.13 44.33,29.65 48.17,27.63 52,28.57 55.83,24.57 59.67,26.67 63.5,26.42 67.33,25.51 71.17,24.36 75,23.26 78.83,22.42 82.67,24.9 86.5,19.16 90.33,18.23 94.17,19.13 98,16.76 101.83,17.49 105.67,15.87 109.5,16.96 113.33,17.64 117.17,15.39 121,15.13 124.83,15.6 128.67,15.05 132.5,12.25 136.33,9.68 140.17,8.24 144,6" style="fill:none;stroke:#004C97;stroke-width:3" />
<circle cx="144" cy="6" r="4" fill="white" stroke = "#004C97" stroke-width="3"/>
</svg>
