<svg  height = "50"  width = "150"  version = "1.1"  xmlns = "http://www.w3.org/2000/svg">
<polyline points="6,33.51 9.83,36.46 13.67,33.75 17.5,30.11 21.33,40.99 25.17,44 29,31.04 32.83,29.41 36.67,26.27 40.5,27.04 44.33,26.55 48.17,25.53 52,26.02 55.83,24.09 59.67,23.8 63.5,21.91 67.33,22.48 71.17,22.41 75,18.01 78.83,20.46 82.67,21.08 86.5,18.36 90.33,12.39 94.17,15.02 98,13.12 101.83,10.82 105.67,9.76 109.5,9.27 113.33,8.14 117.17,6.37 121,7.47 124.83,8.49 128.67,8.31 132.5,6 136.33,7.49 140.17,7.37 144,6.7" style="fill:none;stroke:#004C97;stroke-width:3" />
<circle cx="144" cy="6.7" r="4" fill="white" stroke = "#004C97" stroke-width="3"/>
</svg>
