<svg  height = "50"  width = "150"  version = "1.1"  xmlns = "http://www.w3.org/2000/svg">
<polyline points="6,15.18 9.83,6 13.67,6.63 17.5,20.82 21.33,21.04 25.17,25.17 29,24.11 32.83,26.59 36.67,30.14 40.5,31.51 44.33,29.44 48.17,35.68 52,30.2 55.83,24.18 59.67,31.51 63.5,34.84 67.33,37.45 71.17,37 75,38.04 78.83,34.61 82.67,39.69 86.5,42.09 90.33,43.64 94.17,37.36 98,44 101.83,36.27 105.67,42.42 109.5,41.1 113.33,37.43 117.17,40.71 121,41.55 124.83,41.76 128.67,41.52 132.5,42.04 136.33,43.62 140.17,44 144,40.76" style="fill:none;stroke:#004C97;stroke-width:3" />
<circle cx="144" cy="40.76" r="4" fill="white" stroke = "#004C97" stroke-width="3"/>
</svg>
