<svg  height = "50"  width = "150"  version = "1.1"  xmlns = "http://www.w3.org/2000/svg">
<polyline points="6,6 9.83,14.39 13.67,21.16 17.5,19.3 21.33,22.69 25.17,15.34 29,29.05 32.83,35.18 36.67,37.34 40.5,24.17 44.33,40.98 48.17,20.23 52,36.24 55.83,31.79 59.67,22.53 63.5,31.55 67.33,34.39 71.17,34.89 75,36.16 78.83,37.7 82.67,39.5 86.5,44 90.33,35.93 94.17,38.46 98,31.01 101.83,28.78 105.67,31.05 109.5,31.46 113.33,27.49 117.17,22.37 121,14.4 124.83,9.61 128.67,14.39 132.5,11.87 136.33,10.24 140.17,14.84 144,30.88" style="fill:none;stroke:#004C97;stroke-width:3" />
<circle cx="144" cy="30.88" r="4" fill="white" stroke = "#004C97" stroke-width="3"/>
</svg>
