<svg  height = "50"  width = "150"  version = "1.1"  xmlns = "http://www.w3.org/2000/svg">
<polyline points="6,10.63 9.83,7.82 13.67,7.92 17.5,6 21.33,9.06 25.17,16.31 29,10.11 32.83,20.23 36.67,29.38 40.5,32.07 44.33,33.66 48.17,37.13 52,30.97 55.83,20.51 59.67,27.89 63.5,33.62 67.33,34.09 71.17,33.3 75,33.55 78.83,33.94 82.67,37.41 86.5,44 90.33,43.8 94.17,39.13 98,37.68 101.83,41.87 105.67,35.03 109.5,40.81 113.33,33.89 117.17,36 121,35.79 124.83,30.88 128.67,35.52 132.5,34.34 136.33,34.5 140.17,35.46 144,39.95" style="fill:none;stroke:#004C97;stroke-width:3" />
<circle cx="144" cy="39.95" r="4" fill="white" stroke = "#004C97" stroke-width="3"/>
</svg>
