<svg  height = "50"  width = "150"  version = "1.1"  xmlns = "http://www.w3.org/2000/svg">
<polyline points="6,19.38 9.83,24.01 13.67,26.05 17.5,32.35 21.33,23.58 25.17,6 29,17.19 32.83,26.29 36.67,27.46 40.5,24.39 44.33,25.43 48.17,27.74 52,32.58 55.83,44 59.67,43.89 63.5,34.35 67.33,32.85 71.17,42.12 75,28.24 78.83,39.19 82.67,25.2 86.5,26.79 90.33,27.11 94.17,20.02 98,25.06 101.83,23.06 105.67,21.84 109.5,24.28 113.33,35.09 117.17,16.07 121,15.52 124.83,16.19 128.67,18.47 132.5,19.6 136.33,14.18 140.17,11.14 144,13.68" style="fill:none;stroke:#004C97;stroke-width:3" />
<circle cx="144" cy="13.68" r="4" fill="white" stroke = "#004C97" stroke-width="3"/>
</svg>
