<svg  height = "50"  width = "150"  version = "1.1"  xmlns = "http://www.w3.org/2000/svg">
<polyline points="6,18.59 9.83,26.99 13.67,28.02 17.5,25.07 21.33,25.93 25.17,27.91 29,32.41 32.83,43.29 36.67,44 40.5,34.05 44.33,32.32 48.17,42.16 52,29.05 55.83,39.17 59.67,25.91 63.5,27.32 67.33,27.54 71.17,20.59 75,25.21 78.83,23.54 82.67,23.53 86.5,24.53 90.33,34.44 94.17,17.72 98,17.24 101.83,17.61 105.67,19.72 109.5,20.76 113.33,15.69 117.17,12.7 121,15.27 124.83,12.82 128.67,6 132.5,12.82 136.33,18.12 140.17,7.32 144,7.2" style="fill:none;stroke:#004C97;stroke-width:3" />
<circle cx="144" cy="7.2" r="4" fill="white" stroke = "#004C97" stroke-width="3"/>
</svg>
