<svg  height = "50"  width = "150"  version = "1.1"  xmlns = "http://www.w3.org/2000/svg">
<polyline points="6,25.97 9.83,32.38 13.67,25.1 17.5,21.63 21.33,41.39 25.17,44 29,22.11 32.83,21.02 36.67,17.06 40.5,19.53 44.33,20.59 48.17,17.3 52,22.78 55.83,20.64 59.67,22.09 63.5,15.63 67.33,22.38 71.17,18.25 75,14.59 78.83,19.99 82.67,20.54 86.5,18.73 90.33,8.52 94.17,15.47 98,13.06 101.83,9.45 105.67,9.47 109.5,10.87 113.33,7.6 117.17,6 121,7.74 124.83,10.59 128.67,12.35 132.5,9.27 136.33,12.91 140.17,12.62 144,10.27" style="fill:none;stroke:#004C97;stroke-width:3" />
<circle cx="144" cy="10.27" r="4" fill="white" stroke = "#004C97" stroke-width="3"/>
</svg>
