<svg  height = "50"  width = "150"  version = "1.1"  xmlns = "http://www.w3.org/2000/svg">
<polyline points="6,19.83 9.83,20.77 13.67,16.08 17.5,28.07 21.33,18.03 25.17,6 29,21.05 32.83,26.7 36.67,30.89 40.5,29.69 44.33,32.2 48.17,26.44 52,37.01 55.83,40.18 59.67,42.39 63.5,31.23 67.33,43.75 71.17,28.25 75,40.58 78.83,37.74 82.67,30.62 86.5,36.92 90.33,37.89 94.17,38.93 98,39.63 101.83,39.14 105.67,41.22 109.5,44 113.33,36.51 117.17,38.89 121,33.86 124.83,32.68 128.67,34.27 132.5,33.98 136.33,31.13 140.17,27.22 144,20.27" style="fill:none;stroke:#004C97;stroke-width:3" />
<circle cx="144" cy="20.27" r="4" fill="white" stroke = "#004C97" stroke-width="3"/>
</svg>
