<svg  height = "50"  width = "150"  version = "1.1"  xmlns = "http://www.w3.org/2000/svg">
<polyline points="6,44 9.83,39.29 13.67,37.01 17.5,37.24 21.33,34.1 25.17,32.9 29,33.98 32.83,33.34 36.67,31.25 40.5,31.57 44.33,30.58 48.17,27.19 52,29.3 55.83,32.86 59.67,28.66 63.5,26.02 67.33,27.58 71.17,23.06 75,23.75 78.83,20.36 82.67,21.12 86.5,17.17 90.33,17.42 94.17,17.03 98,14.36 101.83,14.11 105.67,12.76 109.5,13.8 113.33,14.22 117.17,9.74 121,6 124.83,9.23 128.67,8 132.5,7.27 136.33,6.35 140.17,7.66 144,10.21" style="fill:none;stroke:#004C97;stroke-width:3" />
<circle cx="144" cy="10.21" r="4" fill="white" stroke = "#004C97" stroke-width="3"/>
</svg>
