<svg  height = "50"  width = "150"  version = "1.1"  xmlns = "http://www.w3.org/2000/svg">
<polyline points="6,35.24 9.83,36.18 13.67,34.07 17.5,31.54 21.33,40.8 25.17,44 29,32.1 32.83,29.55 36.67,29.58 40.5,28.33 44.33,27.83 48.17,26.34 52,27.04 55.83,24.12 59.67,24.95 63.5,23.82 67.33,23.7 71.17,23.11 75,20.22 78.83,21.15 82.67,22.65 86.5,18.48 90.33,14.83 94.17,16.67 98,14.53 101.83,13.63 105.67,12.3 109.5,12.55 113.33,12.26 117.17,10.24 121,10.71 124.83,11.49 128.67,11.13 132.5,8.57 136.33,8.16 140.17,7.41 144,6" style="fill:none;stroke:#004C97;stroke-width:3" />
<circle cx="144" cy="6" r="4" fill="white" stroke = "#004C97" stroke-width="3"/>
</svg>
