<svg  height = "50"  width = "150"  version = "1.1"  xmlns = "http://www.w3.org/2000/svg">
<polyline points="6,26.49 9.83,22.75 13.67,19.75 17.5,17.17 21.33,35.19 25.17,44 29,19.14 32.83,11.14 36.67,21.69 40.5,14.71 44.33,15.17 48.17,11.32 52,14.62 55.83,6 59.67,12.94 63.5,14.2 67.33,13.87 71.17,13.07 75,12.39 78.83,12.34 82.67,20.65 86.5,9.5 90.33,9.75 94.17,13.66 98,9.92 101.83,13.45 105.67,11.82 109.5,16.49 113.33,20.16 117.17,16.56 121,17.58 124.83,20.27 128.67,21.28 132.5,17.16 136.33,13.58 140.17,12.08 144,8.79" style="fill:none;stroke:#78BE20;stroke-width:3" />
<circle cx="144" cy="8.79" r="4" fill="white" stroke = "#78BE20" stroke-width="3"/>
</svg>
