<svg  height = "50"  width = "150"  version = "1.1"  xmlns = "http://www.w3.org/2000/svg">
<polyline points="6,25.3 9.83,27 13.67,22.88 17.5,17.9 21.33,37.03 25.17,44 29,20.15 32.83,15.41 36.67,16.73 40.5,15.45 44.33,15.71 48.17,13.5 52,15.75 55.83,10.67 59.67,13.73 63.5,12.83 67.33,13.96 71.17,14.2 75,9.84 78.83,13.1 82.67,17.86 86.5,11.4 90.33,6 94.17,10.94 98,8.07 101.83,7.64 105.67,6.63 109.5,8.69 113.33,9.69 117.17,7.02 121,9.15 124.83,11.87 128.67,12.87 132.5,9.67 136.33,10.59 140.17,10.48 144,9.09" style="fill:none;stroke:#78BE20;stroke-width:3" />
<circle cx="144" cy="9.09" r="4" fill="white" stroke = "#78BE20" stroke-width="3"/>
</svg>
