<svg  height = "50"  width = "150"  version = "1.1"  xmlns = "http://www.w3.org/2000/svg">
<polyline points="6,42.36 9.83,42.44 13.67,41.05 17.5,37.02 21.33,39.62 25.17,44 29,38.56 32.83,34.56 36.67,37.15 40.5,30.11 44.33,32.06 48.17,26.91 52,28.8 55.83,22.65 59.67,23.26 63.5,22.26 67.33,19.08 71.17,18.18 75,16.28 78.83,16.93 82.67,17.8 86.5,11.54 90.33,6.85 94.17,10.79 98,9.41 101.83,8.02 105.67,6.93 109.5,8.83 113.33,12.19 117.17,9.29 121,9.01 124.83,10.71 128.67,10.64 132.5,10.1 136.33,7.54 140.17,8.23 144,6" style="fill:none;stroke:#004C97;stroke-width:3" />
<circle cx="144" cy="6" r="4" fill="white" stroke = "#004C97" stroke-width="3"/>
</svg>
