<svg  height = "50"  width = "150"  version = "1.1"  xmlns = "http://www.w3.org/2000/svg">
<polyline points="6,40.07 9.83,27.4 13.67,44 17.5,32.56 21.33,32.87 25.17,26.16 29,31.1 32.83,17.94 36.67,30.09 40.5,32.76 44.33,33.07 48.17,31 52,29.1 55.83,29.19 59.67,42.19 63.5,24.16 67.33,24.19 71.17,29.71 75,23.24 78.83,29.59 82.67,28.38 86.5,36.6 90.33,43.48 94.17,37 98,37.35 101.83,42.16 105.67,43.67 109.5,36.98 113.33,31 117.17,27.98 121,22.32 124.83,18.99 128.67,12.93 132.5,8.72 136.33,6 140.17,7.93 144,11.21" style="fill:none;stroke:#78BE20;stroke-width:3" />
<circle cx="144" cy="11.21" r="4" fill="white" stroke = "#78BE20" stroke-width="3"/>
</svg>
