<svg  height = "50"  width = "150"  version = "1.1"  xmlns = "http://www.w3.org/2000/svg">
<polyline points="6,44 9.83,40.24 13.67,42.34 17.5,36.04 21.33,37.73 25.17,32.86 29,34.5 32.83,28.7 36.67,30.15 40.5,29.04 44.33,26.47 48.17,25.3 52,23.67 55.83,24.03 59.67,24.5 63.5,18.96 67.33,14.53 71.17,17.94 75,16.52 78.83,15.04 82.67,15.34 86.5,16.82 90.33,20.4 94.17,17.33 98,17.22 101.83,18.49 105.67,18.25 109.5,18.08 113.33,15.77 117.17,16.53 121,14.82 124.83,12.71 128.67,8.08 132.5,6.83 136.33,6 140.17,7.47 144,8.38" style="fill:none;stroke:#004C97;stroke-width:3" />
<circle cx="144" cy="8.38" r="4" fill="white" stroke = "#004C97" stroke-width="3"/>
</svg>
