<svg  height = "50"  width = "150"  version = "1.1"  xmlns = "http://www.w3.org/2000/svg">
<polyline points="6,44 9.83,39.77 13.67,30.93 17.5,27.34 21.33,24.4 25.17,22.03 29,21.05 32.83,21.11 36.67,19.65 40.5,22.95 44.33,19.97 48.17,15.34 52,28.46 55.83,31.75 59.67,16.88 63.5,15.65 67.33,12.72 71.17,14.16 75,14.48 78.83,13.82 82.67,14.57 86.5,12.87 90.33,13.32 94.17,11.79 98,13.18 101.83,13.68 105.67,9.34 109.5,12.82 113.33,14.95 117.17,12.04 121,6.17 124.83,9.79 128.67,8.51 132.5,6.59 136.33,6.35 140.17,6.61 144,6" style="fill:none;stroke:#78BE20;stroke-width:3" />
<circle cx="144" cy="6" r="4" fill="white" stroke = "#78BE20" stroke-width="3"/>
</svg>
