<svg  height = "50"  width = "150"  version = "1.1"  xmlns = "http://www.w3.org/2000/svg">
<polyline points="6,44 9.83,33.21 13.67,36.09 17.5,32.8 21.33,33.32 25.17,27.93 29,32.7 32.83,21.05 36.67,29.12 40.5,27.34 44.33,30.83 48.17,30.04 52,20.55 55.83,27.84 59.67,38.51 63.5,23.53 67.33,11.36 71.17,21.96 75,15.11 78.83,14.04 82.67,13.13 86.5,18.15 90.33,21.52 94.17,14.01 98,19.16 101.83,25.46 105.67,27.82 109.5,20.29 113.33,22.62 117.17,22 121,18.71 124.83,18.33 128.67,12.41 132.5,10.13 136.33,6 140.17,9.12 144,8.12" style="fill:none;stroke:#78BE20;stroke-width:3" />
<circle cx="144" cy="8.12" r="4" fill="white" stroke = "#78BE20" stroke-width="3"/>
</svg>
