<svg  height = "50"  width = "150"  version = "1.1"  xmlns = "http://www.w3.org/2000/svg">
<polyline points="6,44 9.83,39.01 13.67,30.4 17.5,34.56 21.33,35.02 25.17,32.8 29,35.5 32.83,29.69 36.67,31.42 40.5,27.03 44.33,31.5 48.17,32 52,20.67 55.83,30.42 59.67,35.03 63.5,28.42 67.33,12.03 71.17,22.16 75,17.81 78.83,11.59 82.67,11.3 86.5,11.87 90.33,11.24 94.17,6 98,12.67 101.83,17.54 105.67,19.56 109.5,14.45 113.33,22.07 117.17,23.51 121,23.32 124.83,25.32 128.67,21.9 132.5,22 136.33,18.5 140.17,21.25 144,17.43" style="fill:none;stroke:#78BE20;stroke-width:3" />
<circle cx="144" cy="17.43" r="4" fill="white" stroke = "#78BE20" stroke-width="3"/>
</svg>
