<svg  height = "50"  width = "150"  version = "1.1"  xmlns = "http://www.w3.org/2000/svg">
<polyline points="6,44 9.83,29.26 13.67,25.41 17.5,26.59 21.33,22.62 25.17,21.77 29,22.34 32.83,20.47 36.67,16.94 40.5,14.92 44.33,14.22 48.17,11.46 52,23.17 55.83,29.71 59.67,14.25 63.5,8.91 67.33,15.5 71.17,11.08 75,10.92 78.83,8.48 82.67,10.11 86.5,6 90.33,9.63 94.17,10.87 98,10.68 101.83,10.23 105.67,10.33 109.5,9.96 113.33,15.96 117.17,6.93 121,8.01 124.83,9.86 128.67,7.18 132.5,9.79 136.33,8.3 140.17,10.92 144,14.05" style="fill:none;stroke:#78BE20;stroke-width:3" />
<circle cx="144" cy="14.05" r="4" fill="white" stroke = "#78BE20" stroke-width="3"/>
</svg>
