<svg  height = "50"  width = "150"  version = "1.1"  xmlns = "http://www.w3.org/2000/svg">
<polyline points="6,26.83 9.83,31.42 13.67,27.16 17.5,21.42 21.33,38.91 25.17,44 29,23.57 32.83,21.27 36.67,17.15 40.5,19.28 44.33,19.39 48.17,18.38 52,19.74 55.83,17.3 59.67,17.78 63.5,15.75 67.33,17.58 71.17,18.4 75,12.46 78.83,17.21 82.67,19.38 86.5,16.38 90.33,8.4 94.17,13.34 98,11.31 101.83,8.68 105.67,8.14 109.5,8.47 113.33,7.82 117.17,6 121,8.52 124.83,10.92 128.67,11.81 132.5,9.51 136.33,12.9 140.17,13.6 144,13.48" style="fill:none;stroke:#78BE20;stroke-width:3" />
<circle cx="144" cy="13.48" r="4" fill="white" stroke = "#78BE20" stroke-width="3"/>
</svg>
