<svg  height = "50"  width = "150"  version = "1.1"  xmlns = "http://www.w3.org/2000/svg">
<polyline points="6,25.72 9.83,27.79 13.67,24.72 17.5,24.2 21.33,42.39 25.17,44 29,23.45 32.83,22.84 36.67,19.44 40.5,25.95 44.33,22.18 48.17,25.57 52,24.69 55.83,26.09 59.67,27.23 63.5,25.9 67.33,29.88 71.17,29.71 75,25.5 78.83,26.8 82.67,29.15 86.5,27.77 90.33,25.52 94.17,24.53 98,21.38 101.83,21.14 105.67,19.49 109.5,17.52 113.33,12.34 117.17,11.52 121,12.99 124.83,12.53 128.67,11.78 132.5,6.51 136.33,8.98 140.17,6.32 144,6" style="fill:none;stroke:#004C97;stroke-width:3" />
<circle cx="144" cy="6" r="4" fill="white" stroke = "#004C97" stroke-width="3"/>
</svg>
