<svg  height = "50"  width = "150"  version = "1.1"  xmlns = "http://www.w3.org/2000/svg">
<polyline points="6,6 9.83,18.96 13.67,15.94 17.5,26 21.33,22.51 25.17,31.12 29,18.64 32.83,33.88 36.67,34.63 40.5,33.36 44.33,33.81 48.17,41.08 52,37.04 55.83,39.15 59.67,39.42 63.5,38.29 67.33,36.1 71.17,33.67 75,40.74 78.83,44 82.67,35.96 86.5,29.85 90.33,33.89 94.17,32.14 98,32.33 101.83,32.34 105.67,18.02 109.5,28.72 113.33,24.89 117.17,21.05 121,25.17 124.83,22.07 128.67,20.7 132.5,19.43 136.33,24.43 140.17,19.57 144,22.54" style="fill:none;stroke:#004C97;stroke-width:3" />
<circle cx="144" cy="22.54" r="4" fill="white" stroke = "#004C97" stroke-width="3"/>
</svg>
