<svg  height = "50"  width = "150"  version = "1.1"  xmlns = "http://www.w3.org/2000/svg">
<polyline points="6,6 9.83,10.8 13.67,9.9 17.5,11.42 21.33,16.01 25.17,11.84 29,20.08 32.83,22.44 36.67,26.38 40.5,27.8 44.33,33.36 48.17,28.34 52,31.97 55.83,32.4 59.67,36.42 63.5,42.68 67.33,36.13 71.17,43.61 75,44 78.83,37.95 82.67,35.77 86.5,34.32 90.33,34.03 94.17,34.53 98,32.55 101.83,36.58 105.67,23.71 109.5,29.98 113.33,34.72 117.17,27.58 121,25.57 124.83,25.96 128.67,30.28 132.5,31.64 136.33,28.92 140.17,29.82 144,30.43" style="fill:none;stroke:#004C97;stroke-width:3" />
<circle cx="144" cy="30.43" r="4" fill="white" stroke = "#004C97" stroke-width="3"/>
</svg>
