<svg  height = "50"  width = "150"  version = "1.1"  xmlns = "http://www.w3.org/2000/svg">
<polyline points="6,6 9.83,10.51 13.67,11.8 17.5,11.92 21.33,15.4 25.17,19.01 29,20.63 32.83,20.51 36.67,24.32 40.5,23.28 44.33,28.69 48.17,27.7 52,28.43 55.83,20.48 59.67,28.5 63.5,33.68 67.33,32.01 71.17,36.42 75,34.99 78.83,38.04 82.67,33.76 86.5,39.7 90.33,40.35 94.17,39.5 98,40.26 101.83,43.01 105.67,41.16 109.5,42.03 113.33,41.89 117.17,41.64 121,40.52 124.83,39.48 128.67,43.14 132.5,44 136.33,40.66 140.17,38.03 144,40.18" style="fill:none;stroke:#004C97;stroke-width:3" />
<circle cx="144" cy="40.18" r="4" fill="white" stroke = "#004C97" stroke-width="3"/>
</svg>
