<svg  height = "50"  width = "150"  version = "1.1"  xmlns = "http://www.w3.org/2000/svg">
<polyline points="6,9.63 9.83,11.02 13.67,16.27 17.5,20.09 21.33,17.77 25.17,6 29,19.75 32.83,28.83 36.67,29.28 40.5,32.24 44.33,33.29 48.17,35.85 52,34.14 55.83,40.69 59.67,43.18 63.5,42.03 67.33,40.94 71.17,44 75,43.2 78.83,43.23 82.67,39.92 86.5,41.19 90.33,41.59 94.17,38.97 98,41.57 101.83,42.41 105.67,37.37 109.5,38.74 113.33,41.62 117.17,36.83 121,34.57 124.83,33.72 128.67,30.99 132.5,38.55 136.33,35.37 140.17,31.06 144,32.52" style="fill:none;stroke:#004C97;stroke-width:3" />
<circle cx="144" cy="32.52" r="4" fill="white" stroke = "#004C97" stroke-width="3"/>
</svg>
