<svg  height = "50"  width = "150"  version = "1.1"  xmlns = "http://www.w3.org/2000/svg">
<polyline points="6,12.08 9.83,10.67 13.67,19.02 17.5,17.53 21.33,18.51 25.17,6 29,18.9 32.83,27.26 36.67,25.41 40.5,32.17 44.33,29.87 48.17,35.65 52,27.58 55.83,37.19 59.67,37.68 63.5,36.47 67.33,37.59 71.17,42.08 75,39.59 78.83,40.77 82.67,41.08 86.5,40.42 90.33,38.97 94.17,37.42 98,42.35 101.83,44 105.67,38.43 109.5,33.96 113.33,37.69 117.17,36.16 121,36.54 124.83,36.2 128.67,26.84 132.5,34.14 136.33,31.7 140.17,29.04 144,32.02" style="fill:none;stroke:#004C97;stroke-width:3" />
<circle cx="144" cy="32.02" r="4" fill="white" stroke = "#004C97" stroke-width="3"/>
</svg>
