<svg  height = "50"  width = "150"  version = "1.1"  xmlns = "http://www.w3.org/2000/svg">
<polyline points="6,6 9.83,10.14 13.67,16.15 17.5,18.34 21.33,27.18 25.17,19.21 29,25.03 32.83,24.06 36.67,34.97 40.5,42.46 44.33,31.5 48.17,42.67 52,44 55.83,34.81 59.67,31.07 63.5,28.71 67.33,28.31 71.17,29.19 75,26.04 78.83,30.53 82.67,16.18 86.5,22.74 90.33,29.23 94.17,16.49 98,14.46 101.83,15.78 105.67,22.12 109.5,24.48 113.33,20.35 117.17,21.71 121,22.89 124.83,26.29 128.67,15.52 132.5,18.72 136.33,22.98 140.17,27.63 144,25.83" style="fill:none;stroke:#004C97;stroke-width:3" />
<circle cx="144" cy="25.83" r="4" fill="white" stroke = "#004C97" stroke-width="3"/>
</svg>
