<svg  height = "50"  width = "150"  version = "1.1"  xmlns = "http://www.w3.org/2000/svg">
<polyline points="6,18 9.83,31.61 13.67,22.55 17.5,15.84 21.33,32.29 25.17,44 29,37.41 32.83,32.54 36.67,31.64 40.5,41.13 44.33,29.23 48.17,26.94 52,26.88 55.83,30.08 59.67,29.37 63.5,16.41 67.33,33.39 71.17,25.05 75,25.9 78.83,26.67 82.67,32.9 86.5,25.09 90.33,33.95 94.17,22.31 98,21.94 101.83,14.99 105.67,6 109.5,29.07 113.33,34.55 117.17,15.27 121,25.97 124.83,22.76 128.67,24.44 132.5,18.44 136.33,26.89 140.17,14.43 144,37.33" style="fill:none;stroke:#004C97;stroke-width:3" />
<circle cx="144" cy="37.33" r="4" fill="white" stroke = "#004C97" stroke-width="3"/>
</svg>
