<svg  height = "50"  width = "150"  version = "1.1"  xmlns = "http://www.w3.org/2000/svg">
<polyline points="6,12.93 9.83,28.52 13.67,11.25 17.5,6 21.33,6.98 25.17,16.09 29,13.13 32.83,19.19 36.67,28.72 40.5,25.1 44.33,18.27 48.17,23.28 52,25.34 55.83,29.31 59.67,27.37 63.5,30.44 67.33,33.04 71.17,21.53 75,27.82 78.83,23.41 82.67,29.12 86.5,34.65 90.33,35.08 94.17,35.3 98,28.81 101.83,29.18 105.67,26.35 109.5,44 113.33,30.1 117.17,23.47 121,29.44 124.83,30.28 128.67,20.95 132.5,30.43 136.33,20.97 140.17,22.98 144,29.38" style="fill:none;stroke:#004C97;stroke-width:3" />
<circle cx="144" cy="29.38" r="4" fill="white" stroke = "#004C97" stroke-width="3"/>
</svg>
