<svg  height = "50"  width = "150"  version = "1.1"  xmlns = "http://www.w3.org/2000/svg">
<polyline points="6,6.23 9.83,6 13.67,13.56 17.5,14.18 21.33,8.11 25.17,10.27 29,13.55 32.83,20.05 36.67,19.42 40.5,25.17 44.33,32.44 48.17,29.26 52,27.18 55.83,25.22 59.67,33.39 63.5,40.19 67.33,31.49 71.17,29.45 75,29.87 78.83,33.71 82.67,32.76 86.5,35.7 90.33,39.52 94.17,38.69 98,35.06 101.83,37.86 105.67,38.71 109.5,40.14 113.33,38.63 117.17,41.14 121,42.72 124.83,36.48 128.67,40.11 132.5,38.02 136.33,40.03 140.17,44 144,42.9" style="fill:none;stroke:#004C97;stroke-width:3" />
<circle cx="144" cy="42.9" r="4" fill="white" stroke = "#004C97" stroke-width="3"/>
</svg>
