<svg  height = "50"  width = "150"  version = "1.1"  xmlns = "http://www.w3.org/2000/svg">
<polyline points="6,6.19 9.83,6 13.67,6.16 17.5,8.51 21.33,11.07 25.17,18.04 29,20.82 32.83,20.98 36.67,25.08 40.5,27.12 44.33,27.09 48.17,27.15 52,28.88 55.83,26.66 59.67,30.84 63.5,32.64 67.33,34.69 71.17,35.34 75,38.3 78.83,34.34 82.67,37.5 86.5,37.78 90.33,39.68 94.17,44 98,39.5 101.83,43.53 105.67,43.61 109.5,39.14 113.33,39.47 117.17,39.37 121,38.79 124.83,38.87 128.67,38.06 132.5,40.89 136.33,33.2 140.17,36.81 144,38.32" style="fill:none;stroke:#004C97;stroke-width:3" />
<circle cx="144" cy="38.32" r="4" fill="white" stroke = "#004C97" stroke-width="3"/>
</svg>
