<svg  height = "50"  width = "150"  version = "1.1"  xmlns = "http://www.w3.org/2000/svg">
<polyline points="6,6 9.83,24.45 13.67,26.54 17.5,19.66 21.33,25.04 25.17,19.03 29,16.23 32.83,32.52 36.67,40.95 40.5,37.35 44.33,29.28 48.17,35.74 52,27.61 55.83,30.95 59.67,43.16 63.5,28.34 67.33,31.88 71.17,36.8 75,41.08 78.83,39.3 82.67,34.31 86.5,42.19 90.33,32.63 94.17,36.73 98,32.13 101.83,44 105.67,25.3 109.5,31.04 113.33,33.64 117.17,35.29 121,41.04 124.83,42.61 128.67,26.93 132.5,29.8 136.33,40.2 140.17,36.46 144,35.18" style="fill:none;stroke:#004C97;stroke-width:3" />
<circle cx="144" cy="35.18" r="4" fill="white" stroke = "#004C97" stroke-width="3"/>
</svg>
