<svg  height = "50"  width = "150"  version = "1.1"  xmlns = "http://www.w3.org/2000/svg">
<polyline points="6,6 9.83,6.82 13.67,8.61 17.5,10.31 21.33,10.66 25.17,13.09 29,23.8 32.83,23.17 36.67,26.27 40.5,23.51 44.33,26.29 48.17,29.41 52,31.65 55.83,34.14 59.67,35.18 63.5,39.32 67.33,36.12 71.17,33.08 75,40.1 78.83,44 82.67,42.28 86.5,39.69 90.33,39.71 94.17,42.45 98,39.09 101.83,37.54 105.67,38.78 109.5,38.33 113.33,37.4 117.17,34.76 121,39.73 124.83,37.57 128.67,36.72 132.5,37.42 136.33,39.01 140.17,35.62 144,40.47" style="fill:none;stroke:#004C97;stroke-width:3" />
<circle cx="144" cy="40.47" r="4" fill="white" stroke = "#004C97" stroke-width="3"/>
</svg>
