<svg  height = "50"  width = "150"  version = "1.1"  xmlns = "http://www.w3.org/2000/svg">
<polyline points="6,10.83 9.83,6 13.67,11.63 17.5,17.19 21.33,22.08 25.17,26.26 29,27.74 32.83,36.31 36.67,30.5 40.5,26.09 44.33,36.45 48.17,44 52,39.7 55.83,36.37 59.67,37.31 63.5,41.09 67.33,34.78 71.17,32.65 75,33.6 78.83,35.46 82.67,34.88 86.5,26.48 90.33,37.14 94.17,32.22 98,32.46 101.83,32.56 105.67,37.84 109.5,30.74 113.33,37.81 117.17,29.44 121,30.47 124.83,26.17 128.67,20.38 132.5,34.25 136.33,37.97 140.17,26.2 144,32.5" style="fill:none;stroke:#004C97;stroke-width:3" />
<circle cx="144" cy="32.5" r="4" fill="white" stroke = "#004C97" stroke-width="3"/>
</svg>
