<svg  height = "50"  width = "150"  version = "1.1"  xmlns = "http://www.w3.org/2000/svg">
<polyline points="6,6.47 9.83,6 13.67,7.66 17.5,10.22 21.33,13.14 25.17,18.72 29,20.71 32.83,22.8 36.67,26.52 40.5,27.49 44.33,30.56 48.17,31.95 52,30.68 55.83,24.47 59.67,31.54 63.5,36.02 67.33,36.32 71.17,37.85 75,38.78 78.83,39.27 82.67,38.77 86.5,42.45 90.33,43.92 94.17,43.19 98,42.39 101.83,44 105.67,43.68 109.5,42.95 113.33,41.54 117.17,42.76 121,43.01 124.83,41.32 128.67,42.63 132.5,43.65 136.33,40.98 140.17,41.24 144,42.65" style="fill:none;stroke:#004C97;stroke-width:3" />
<circle cx="144" cy="42.65" r="4" fill="white" stroke = "#004C97" stroke-width="3"/>
</svg>
