<svg  height = "50"  width = "150"  version = "1.1"  xmlns = "http://www.w3.org/2000/svg">
<polyline points="6,6 9.83,20.66 13.67,21.07 17.5,25.43 21.33,27.25 25.17,31.11 29,28.29 32.83,38.44 36.67,43.49 40.5,41.4 44.33,38.31 48.17,44 52,41.99 55.83,42.74 59.67,37.37 63.5,39.09 67.33,39.94 71.17,35.89 75,39.58 78.83,41.05 82.67,34.88 86.5,36.52 90.33,39.27 94.17,32.91 98,28.59 101.83,28.06 105.67,23.5 109.5,34.94 113.33,30.3 117.17,23.6 121,25.98 124.83,24.07 128.67,19.13 132.5,21.99 136.33,24.16 140.17,22.54 144,28.37" style="fill:none;stroke:#004C97;stroke-width:3" />
<circle cx="144" cy="28.37" r="4" fill="white" stroke = "#004C97" stroke-width="3"/>
</svg>
