<svg  height = "50"  width = "150"  version = "1.1"  xmlns = "http://www.w3.org/2000/svg">
<polyline points="6,6 9.83,27.81 13.67,39.08 17.5,34.46 21.33,24.56 25.17,32.77 29,22.32 32.83,24.56 36.67,44 40.5,23.85 44.33,27.34 48.17,34.34 52,38.6 55.83,36.65 59.67,30.53 63.5,40.61 67.33,28.97 71.17,34.17 75,28.22 78.83,41.1 82.67,21.49 86.5,27.06 90.33,29.68 94.17,32.51 98,38.23 101.83,40.32 105.67,20.56 109.5,24.45 113.33,38.56 117.17,33 121,31.54 124.83,40.21 128.67,28.37 132.5,25.6 136.33,34.18 140.17,32.7 144,36.69" style="fill:none;stroke:#004C97;stroke-width:3" />
<circle cx="144" cy="36.69" r="4" fill="white" stroke = "#004C97" stroke-width="3"/>
</svg>
