<svg  height = "50"  width = "150"  version = "1.1"  xmlns = "http://www.w3.org/2000/svg">
<polyline points="6,6 9.83,14.13 13.67,23.37 17.5,20.48 21.33,15.95 25.17,13.62 29,24.52 32.83,34.04 36.67,22.95 40.5,19.52 44.33,20.02 48.17,25.8 52,24.03 55.83,28.38 59.67,33.09 63.5,32.06 67.33,26.97 71.17,30.65 75,32.58 78.83,34.49 82.67,33.3 86.5,35.3 90.33,36.81 94.17,29.22 98,33.41 101.83,31.09 105.67,33.21 109.5,38.23 113.33,37.8 117.17,38.35 121,35.05 124.83,34.46 128.67,32.75 132.5,44 136.33,34.81 140.17,30.59 144,34.2" style="fill:none;stroke:#004C97;stroke-width:3" />
<circle cx="144" cy="34.2" r="4" fill="white" stroke = "#004C97" stroke-width="3"/>
</svg>
