<svg  height = "50"  width = "150"  version = "1.1"  xmlns = "http://www.w3.org/2000/svg">
<polyline points="6,10 9.83,6 13.67,7.69 17.5,11.94 21.33,22.71 25.17,23.33 29,22.47 32.83,20.23 36.67,24.94 40.5,34.1 44.33,35.04 48.17,31.79 52,34.46 55.83,31.36 59.67,30.29 63.5,39.58 67.33,42.49 71.17,39.98 75,35.96 78.83,39.91 82.67,36.06 86.5,37.51 90.33,44 94.17,35.42 98,38.26 101.83,40.54 105.67,44 109.5,42.91 113.33,38.98 117.17,43.55 121,39.78 124.83,40.19 128.67,37.78 132.5,43.89 136.33,33.87 140.17,36.57 144,38.46" style="fill:none;stroke:#004C97;stroke-width:3" />
<circle cx="144" cy="38.46" r="4" fill="white" stroke = "#004C97" stroke-width="3"/>
</svg>
