<svg  height = "50"  width = "150"  version = "1.1"  xmlns = "http://www.w3.org/2000/svg">
<polyline points="6,19.97 9.83,22.64 13.67,20.93 17.5,30.6 21.33,20.89 25.17,6 29,19.65 32.83,27.04 36.67,29.94 40.5,27.85 44.33,29.75 48.17,27.56 52,35.76 55.83,42.8 59.67,44 63.5,33.31 67.33,39.69 71.17,35.21 75,35.77 78.83,39.21 82.67,28.75 86.5,33.04 90.33,33.73 94.17,31.06 98,33.77 101.83,32.57 105.67,33.19 109.5,35.88 113.33,36.63 117.17,29.21 121,26.12 124.83,25.76 128.67,27.71 132.5,28.06 136.33,23.96 140.17,20.35 144,17.59" style="fill:none;stroke:#004C97;stroke-width:3" />
<circle cx="144" cy="17.59" r="4" fill="white" stroke = "#004C97" stroke-width="3"/>
</svg>
