<svg  height = "50"  width = "150"  version = "1.1"  xmlns = "http://www.w3.org/2000/svg">
<polyline points="6,13.68 9.83,6 13.67,6.16 17.5,13.44 21.33,14.83 25.17,20.78 29,17.13 32.83,23.48 36.67,29.83 40.5,31.83 44.33,31.39 48.17,36.53 52,30.93 55.83,22.77 59.67,29.69 63.5,34.15 67.33,36.13 71.17,35.24 75,35.9 78.83,33.99 82.67,38.67 86.5,43.12 90.33,44 94.17,38.1 98,41.12 101.83,38.74 105.67,38.79 109.5,40.89 113.33,35.52 117.17,37.98 121,38.35 124.83,35.99 128.67,38.08 132.5,37.85 136.33,38.7 140.17,39.48 144,40.01" style="fill:none;stroke:#004C97;stroke-width:3" />
<circle cx="144" cy="40.01" r="4" fill="white" stroke = "#004C97" stroke-width="3"/>
</svg>
