<svg  height = "50"  width = "150"  version = "1.1"  xmlns = "http://www.w3.org/2000/svg">
<polyline points="6,19.7 9.83,24.12 13.67,26.25 17.5,32.07 21.33,22.57 25.17,6 29,18.79 32.83,27.56 36.67,27.72 40.5,25.89 44.33,26.9 48.17,29.35 52,33.33 55.83,44 59.67,43.52 63.5,35.31 67.33,34.2 71.17,42.42 75,30.75 78.83,40.26 82.67,27.8 86.5,30.41 90.33,30.88 94.17,24.77 98,29.5 101.83,27.67 105.67,27.02 109.5,28.8 113.33,37.69 117.17,22.38 121,21.99 124.83,22.43 128.67,24.44 132.5,25.99 136.33,22.19 140.17,20.08 144,22.64" style="fill:none;stroke:#004C97;stroke-width:3" />
<circle cx="144" cy="22.64" r="4" fill="white" stroke = "#004C97" stroke-width="3"/>
</svg>
