<svg  height = "50"  width = "150"  version = "1.1"  xmlns = "http://www.w3.org/2000/svg">
<polyline points="6,6 9.83,9.82 13.67,12.22 17.5,15.26 21.33,16.61 25.17,17.92 29,20.76 32.83,23.38 36.67,26.23 40.5,27.87 44.33,29.98 48.17,30.66 52,30.23 55.83,31.22 59.67,33.28 63.5,33.55 67.33,35.7 71.17,39.15 75,41.29 78.83,42.52 82.67,42.19 86.5,42.41 90.33,42.83 94.17,43.48 98,44 101.83,43.24 105.67,42.21 109.5,43.1 113.33,42.78 117.17,42.13 121,40.7 124.83,39.44 128.67,39.63 132.5,39.14 136.33,37.59 140.17,37.15 144,35.96" style="fill:none;stroke:#004C97;stroke-width:3" />
<circle cx="144" cy="35.96" r="4" fill="white" stroke = "#004C97" stroke-width="3"/>
</svg>
