<svg  height = "50"  width = "150"  version = "1.1"  xmlns = "http://www.w3.org/2000/svg">
<polyline points="6,20.29 9.83,20.27 13.67,17.24 17.5,27.7 21.33,16.78 25.17,6 29,21.9 32.83,26.78 36.67,30.8 40.5,29.68 44.33,31.77 48.17,27.47 52,35.69 55.83,38.56 59.67,40.37 63.5,31.98 67.33,41.67 71.17,29.57 75,39.96 78.83,37.32 82.67,31.68 86.5,37.08 90.33,38.89 94.17,39.22 98,40.08 101.83,40.1 105.67,41.84 109.5,44 113.33,38.59 117.17,40.65 121,36.75 124.83,35.69 128.67,36.9 132.5,37.09 136.33,34.73 140.17,31.89 144,26.96" style="fill:none;stroke:#004C97;stroke-width:3" />
<circle cx="144" cy="26.96" r="4" fill="white" stroke = "#004C97" stroke-width="3"/>
</svg>
