<svg  height = "50"  width = "150"  version = "1.1"  xmlns = "http://www.w3.org/2000/svg">
<polyline points="6,13.1 9.83,6 13.67,8.36 17.5,20.86 21.33,21.5 25.17,25.31 29,24.54 32.83,26.6 36.67,29.8 40.5,30.53 44.33,29.16 48.17,35.02 52,28.66 55.83,22.96 59.67,31.36 63.5,34.34 67.33,36.93 71.17,36.48 75,37.39 78.83,34.64 82.67,38.86 86.5,41.08 90.33,42.41 94.17,37.38 98,42.84 101.83,36.41 105.67,41.95 109.5,40.59 113.33,37.42 117.17,40.5 121,41.79 124.83,41.69 128.67,41.67 132.5,42.3 136.33,43.65 140.17,44 144,41.53" style="fill:none;stroke:#004C97;stroke-width:3" />
<circle cx="144" cy="41.53" r="4" fill="white" stroke = "#004C97" stroke-width="3"/>
</svg>
