<svg  height = "50"  width = "150"  version = "1.1"  xmlns = "http://www.w3.org/2000/svg">
<polyline points="6,16.64 9.83,12.83 13.67,9.25 17.5,7.5 21.33,6.44 25.17,6.67 29,6 32.83,7.17 36.67,9.59 40.5,13.09 44.33,15.32 48.17,18.12 52,19.37 55.83,20.57 59.67,23.16 63.5,25.54 67.33,28.11 71.17,29.59 75,31.46 78.83,32.02 82.67,31.61 86.5,32.49 90.33,34.35 94.17,34.61 98,36.47 101.83,39.6 105.67,41.53 109.5,42.61 113.33,42.28 117.17,42.45 121,42.89 124.83,43.5 128.67,44 132.5,43.37 136.33,42.48 140.17,43.14 144,42.9" style="fill:none;stroke:#004C97;stroke-width:3" />
<circle cx="144" cy="42.9" r="4" fill="white" stroke = "#004C97" stroke-width="3"/>
</svg>
