<svg  height = "50"  width = "150"  version = "1.1"  xmlns = "http://www.w3.org/2000/svg">
<polyline points="6,20.88 9.83,22.94 13.67,22.03 17.5,31.04 21.33,20.13 25.17,6 29,21.46 32.83,28.45 36.67,30.94 40.5,29.44 44.33,31.18 48.17,29.66 52,36.5 55.83,43.13 59.67,44 63.5,35.11 67.33,40.55 71.17,36.86 75,37.94 78.83,40.65 82.67,31.52 86.5,36.02 90.33,37.34 94.17,34.76 98,37.44 101.83,36.64 105.67,37.41 109.5,39.56 113.33,40.23 117.17,34.6 121,32.01 124.83,31.56 128.67,33.21 132.5,34.03 136.33,30.84 140.17,28.14 144,26.29" style="fill:none;stroke:#78BE20;stroke-width:3" />
<circle cx="144" cy="26.29" r="4" fill="white" stroke = "#78BE20" stroke-width="3"/>
</svg>
