<svg  height = "50"  width = "150"  version = "1.1"  xmlns = "http://www.w3.org/2000/svg">
<polyline points="6,6 9.83,23.6 13.67,31.78 17.5,27.3 21.33,32.91 25.17,28.63 29,36.15 32.83,39.24 36.67,44 40.5,38.17 44.33,42.53 48.17,38.34 52,38.91 55.83,35.91 59.67,29.24 63.5,43.44 67.33,33.55 71.17,34.35 75,38.94 78.83,28.58 82.67,32.9 86.5,30.06 90.33,30.86 94.17,28.71 98,23.36 101.83,26.82 105.67,18.59 109.5,19.55 113.33,14.95 117.17,17.99 121,12.9 124.83,16.09 128.67,17.74 132.5,17.6 136.33,18.79 140.17,18.53 144,27.73" style="fill:none;stroke:#009CA6;stroke-width:3" />
<circle cx="144" cy="27.73" r="4" fill="white" stroke = "#009CA6" stroke-width="3"/>
</svg>
