<svg  height = "50"  width = "150"  version = "1.1"  xmlns = "http://www.w3.org/2000/svg">
<polyline points="6,6 9.83,9.94 13.67,18.87 17.5,24.6 21.33,26.97 25.17,26.47 29,28.98 32.83,31.94 36.67,32.98 40.5,27.64 44.33,32.68 48.17,30.61 52,26.93 55.83,20.06 59.67,35.23 63.5,39.35 67.33,41.02 71.17,40.15 75,41.42 78.83,40.21 82.67,42.08 86.5,43 90.33,44 94.17,42.81 98,43.7 101.83,42.74 105.67,43.01 109.5,42.22 113.33,40.28 117.17,43.89 121,41.43 124.83,41.44 128.67,42.69 132.5,40.54 136.33,41.55 140.17,40.75 144,41.11" style="fill:none;stroke:#009CA6;stroke-width:3" />
<circle cx="144" cy="41.11" r="4" fill="white" stroke = "#009CA6" stroke-width="3"/>
</svg>
