<svg  height = "50"  width = "150"  version = "1.1"  xmlns = "http://www.w3.org/2000/svg">
<polyline points="6,27.07 9.83,18.52 13.67,26.1 17.5,22.83 21.33,17.1 25.17,6 29,30.48 32.83,36.75 36.67,39.58 40.5,37.92 44.33,40.02 48.17,38.4 52,41.16 55.83,42.35 59.67,44 63.5,41.86 67.33,43.38 71.17,41.83 75,42.41 78.83,41.21 82.67,38.62 86.5,43.76 90.33,40.19 94.17,40.4 98,42.11 101.83,38.5 105.67,40.01 109.5,38.88 113.33,39.09 117.17,38.34 121,36.87 124.83,37.94 128.67,34.76 132.5,35.03 136.33,33.53 140.17,34.47 144,32.67" style="fill:none;stroke:#009CA6;stroke-width:3" />
<circle cx="144" cy="32.67" r="4" fill="white" stroke = "#009CA6" stroke-width="3"/>
</svg>
