<svg  height = "50"  width = "150"  version = "1.1"  xmlns = "http://www.w3.org/2000/svg">
<polyline points="6,7.85 9.83,9.56 13.67,8.58 17.5,6 21.33,6.63 25.17,7.42 29,9.84 32.83,12.52 36.67,13.96 40.5,15.34 44.33,18.76 48.17,25.51 52,32.35 55.83,34.59 59.67,36.95 63.5,39.66 67.33,42.51 71.17,43.34 75,44 78.83,43.58 82.67,43.59 86.5,42.91 90.33,43.25 94.17,43.03 98,41.36 101.83,40 105.67,40.12 109.5,38.86 113.33,35.94 117.17,35.41 121,33.17 124.83,30.8 128.67,26.96 132.5,24.29 136.33,21.66 140.17,18.96 144,18.36" style="fill:none;stroke:#78BE20;stroke-width:3" />
<circle cx="144" cy="18.36" r="4" fill="white" stroke = "#78BE20" stroke-width="3"/>
</svg>
