<svg  height = "50"  width = "150"  version = "1.1"  xmlns = "http://www.w3.org/2000/svg">
<polyline points="6,6 9.83,6.04 13.67,9.5 17.5,10.99 21.33,15.55 25.17,21.1 29,23.12 32.83,26.48 36.67,29.83 40.5,32.45 44.33,35.82 48.17,40.07 52,43.29 55.83,44 59.67,42.97 63.5,42.56 67.33,41.36 71.17,39.63 75,39.16 78.83,38.22 82.67,37.06 86.5,36.37 90.33,36.04 94.17,34.3 98,31.97 101.83,31.37 105.67,30.71 109.5,28.52 113.33,26.77 117.17,25.97 121,25.45 124.83,25.82 128.67,24.92 132.5,24.32 136.33,25.24 140.17,26.5 144,27.76" style="fill:none;stroke:#004C97;stroke-width:3" />
<circle cx="144" cy="27.76" r="4" fill="white" stroke = "#004C97" stroke-width="3"/>
</svg>
