<svg  height = "50"  width = "150"  version = "1.1"  xmlns = "http://www.w3.org/2000/svg">
<polyline points="6,30.08 9.83,35.22 13.67,33.17 17.5,33.03 21.33,37.06 25.17,38.76 29,34.49 32.83,36.41 36.67,37.54 40.5,31.09 44.33,29.75 48.17,28.97 52,26.59 55.83,29.98 59.67,32.77 63.5,34.38 67.33,36.16 71.17,37.05 75,38.86 78.83,37.18 82.67,34.83 86.5,41.55 90.33,40.06 94.17,44 98,42.82 101.83,40.45 105.67,40.94 109.5,41.04 113.33,35.84 117.17,29.49 121,23.48 124.83,18.2 128.67,17.23 132.5,13.11 136.33,11.7 140.17,6 144,8.11" style="fill:none;stroke:#004C97;stroke-width:3" />
<circle cx="144" cy="8.11" r="4" fill="white" stroke = "#004C97" stroke-width="3"/>
</svg>
