<svg  height = "50"  width = "150"  version = "1.1"  xmlns = "http://www.w3.org/2000/svg">
<polyline points="6,22.14 9.83,22.67 13.67,23.97 17.5,27.37 21.33,27.77 25.17,28.01 29,28.37 32.83,30.58 36.67,32.43 40.5,35.87 44.33,39.9 48.17,41.31 52,42.21 55.83,44 59.67,43.01 63.5,40.49 67.33,40.45 71.17,36.89 75,35.82 78.83,35.35 82.67,34.43 86.5,30.37 90.33,26.45 94.17,26.48 98,22.51 101.83,19.03 105.67,17.79 109.5,14.32 113.33,13.17 117.17,11.32 121,7.06 124.83,6 128.67,6.08 132.5,7.03 136.33,8.18 140.17,8.57 144,11.62" style="fill:none;stroke:#78BE20;stroke-width:3" />
<circle cx="144" cy="11.62" r="4" fill="white" stroke = "#78BE20" stroke-width="3"/>
</svg>
