<svg  height = "50"  width = "150"  version = "1.1"  xmlns = "http://www.w3.org/2000/svg">
<polyline points="6,6 9.83,8.45 13.67,11.98 17.5,13.74 21.33,20.98 25.17,27.06 29,25.99 32.83,28.68 36.67,30.12 40.5,33.69 44.33,32.16 48.17,33.45 52,36.19 55.83,38.32 59.67,43.17 63.5,44 67.33,40.99 71.17,43.3 75,42.12 78.83,39.9 82.67,36.63 86.5,35.96 90.33,35.34 94.17,36.33 98,35.41 101.83,36.51 105.67,34.85 109.5,34.14 113.33,33.03 117.17,30.54 121,32.02 124.83,33.95 128.67,33.73 132.5,25.02 136.33,19.78 140.17,13.46 144,9.89" style="fill:none;stroke:#004C97;stroke-width:3" />
<circle cx="144" cy="9.89" r="4" fill="white" stroke = "#004C97" stroke-width="3"/>
</svg>
