<svg  height = "50"  width = "150"  version = "1.1"  xmlns = "http://www.w3.org/2000/svg">
<polyline points="6,12.13 9.83,11.27 13.67,9.64 17.5,9.52 21.33,6.76 25.17,9.25 29,6 32.83,13.25 36.67,15.61 40.5,9.59 44.33,9.67 48.17,9.74 52,12.86 55.83,17.35 59.67,23.23 63.5,26.65 67.33,32.19 71.17,32.18 75,37.84 78.83,37.8 82.67,37.84 86.5,43.91 90.33,43.91 94.17,44 98,40.85 101.83,41.1 105.67,41.09 109.5,41.09 113.33,35.65 117.17,35.67 121,26.01 124.83,19.98 128.67,19.99 132.5,12.76 136.33,12.75 140.17,12.72 144,16.1" style="fill:none;stroke:#78BE20;stroke-width:3" />
<circle cx="144" cy="16.1" r="4" fill="white" stroke = "#78BE20" stroke-width="3"/>
</svg>
