<svg  height = "50"  width = "150"  version = "1.1"  xmlns = "http://www.w3.org/2000/svg">
<polyline points="6,6 9.83,10.88 13.67,15.01 17.5,18.02 21.33,22.32 25.17,24.77 29,24.72 32.83,26.05 36.67,28.78 40.5,27.91 44.33,30.28 48.17,35.37 52,39.47 55.83,40.44 59.67,43.28 63.5,42.54 67.33,40.64 71.17,40.89 75,39.16 78.83,40.11 82.67,39.68 86.5,42.25 90.33,44 94.17,43.05 98,40.71 101.83,40.15 105.67,37.51 109.5,36.7 113.33,37.44 117.17,38.71 121,39.71 124.83,36.96 128.67,35.79 132.5,35.07 136.33,33.46 140.17,34.29 144,35.18" style="fill:none;stroke:#004C97;stroke-width:3" />
<circle cx="144" cy="35.18" r="4" fill="white" stroke = "#004C97" stroke-width="3"/>
</svg>
