<svg  height = "50"  width = "150"  version = "1.1"  xmlns = "http://www.w3.org/2000/svg">
<polyline points="6,30.87 9.83,35.38 13.67,40.21 17.5,38.35 21.33,36.93 25.17,34.98 29,35.64 32.83,32.06 36.67,30.91 40.5,27.18 44.33,27.17 48.17,29.98 52,29.36 55.83,29.91 59.67,28.48 63.5,29.72 67.33,29.18 71.17,34.22 75,36.24 78.83,39.82 82.67,41.75 86.5,44 90.33,38.91 94.17,31.21 98,32.5 101.83,22.84 105.67,14.64 109.5,13.53 113.33,12.02 117.17,10.7 121,7 124.83,6.99 128.67,6 132.5,6.37 136.33,10.17 140.17,17.86 144,15.67" style="fill:none;stroke:#78BE20;stroke-width:3" />
<circle cx="144" cy="15.67" r="4" fill="white" stroke = "#78BE20" stroke-width="3"/>
</svg>
