<svg  height = "50"  width = "150"  version = "1.1"  xmlns = "http://www.w3.org/2000/svg">
<polyline points="6,38.38 9.83,35.38 13.67,35.47 17.5,35.8 21.33,33.6 25.17,30.86 29,28.99 32.83,30.32 36.67,28.28 40.5,31.37 44.33,29.05 48.17,25.08 52,22.6 55.83,20.86 59.67,13.97 63.5,10.64 67.33,10.37 71.17,12.42 75,12.75 78.83,10.37 82.67,6.76 86.5,6 90.33,7.1 94.17,7.15 98,7.01 101.83,11.84 105.67,18.69 109.5,22.92 113.33,25.48 117.17,26.88 121,27.13 124.83,30.58 128.67,37.42 132.5,38.53 136.33,39.82 140.17,42.87 144,44" style="fill:none;stroke:#78BE20;stroke-width:3" />
<circle cx="144" cy="44" r="4" fill="white" stroke = "#78BE20" stroke-width="3"/>
</svg>
