<svg  height = "50"  width = "150"  version = "1.1"  xmlns = "http://www.w3.org/2000/svg">
<polyline points="6,16.91 9.83,21.51 13.67,20.63 17.5,23.32 21.33,21.92 25.17,12.33 29,8.57 32.83,6 36.67,9.94 40.5,11.73 44.33,10.57 48.17,14.19 52,13.47 55.83,13.12 59.67,10.69 63.5,7.81 67.33,12.53 71.17,22.41 75,27.28 78.83,28.51 82.67,28.85 86.5,30.33 90.33,33.32 94.17,34.74 98,36.33 101.83,36.73 105.67,39.37 109.5,44 113.33,41.21 117.17,41.34 121,37.51 124.83,35.87 128.67,33.68 132.5,33.66 136.33,27.85 140.17,27.85 144,23.81" style="fill:none;stroke:#78BE20;stroke-width:3" />
<circle cx="144" cy="23.81" r="4" fill="white" stroke = "#78BE20" stroke-width="3"/>
</svg>
