<svg  height = "50"  width = "150"  version = "1.1"  xmlns = "http://www.w3.org/2000/svg">
<polyline points="6,6 9.83,8.26 13.67,13.31 17.5,15.45 21.33,17.16 25.17,15.64 29,12.39 32.83,11.39 36.67,15.42 40.5,14.66 44.33,22.04 48.17,26.65 52,32.11 55.83,36.48 59.67,34.49 63.5,34.63 67.33,37.07 71.17,37.88 75,40.75 78.83,39.76 82.67,40.95 86.5,43.22 90.33,40.22 94.17,37.81 98,35.4 101.83,31.37 105.67,30.74 109.5,32.9 113.33,31.04 117.17,31.01 121,31.79 124.83,33.33 128.67,35.73 132.5,36.63 136.33,37.16 140.17,42.28 144,44" style="fill:none;stroke:#004C97;stroke-width:3" />
<circle cx="144" cy="44" r="4" fill="white" stroke = "#004C97" stroke-width="3"/>
</svg>
