<svg  height = "50"  width = "150"  version = "1.1"  xmlns = "http://www.w3.org/2000/svg">
<polyline points="6,6 9.83,10.17 13.67,15.14 17.5,17.79 21.33,21.7 25.17,23.51 29,22.29 32.83,23.81 36.67,27.51 40.5,27.47 44.33,31.29 48.17,37.08 52,40.78 55.83,42.66 59.67,42.29 63.5,42.98 67.33,42.8 71.17,43.55 75,44 78.83,42.32 82.67,40.5 86.5,42.68 90.33,42.59 94.17,41.68 98,39.39 101.83,37.62 105.67,38.17 109.5,37.19 113.33,35.42 117.17,34.93 121,34.39 124.83,33.34 128.67,32.88 132.5,30.23 136.33,27.74 140.17,26.73 144,27.22" style="fill:none;stroke:#004C97;stroke-width:3" />
<circle cx="144" cy="27.22" r="4" fill="white" stroke = "#004C97" stroke-width="3"/>
</svg>
