<svg  height = "50"  width = "150"  version = "1.1"  xmlns = "http://www.w3.org/2000/svg">
<polyline points="6,6 9.83,10.19 13.67,14.5 17.5,25.54 21.33,35.07 25.17,40.67 29,44 32.83,41.8 36.67,42.25 40.5,42.82 44.33,39.97 48.17,35.1 52,35.38 55.83,36.27 59.67,36.27 63.5,32.3 67.33,32.28 71.17,28.24 75,27.51 78.83,30.29 82.67,30.9 86.5,29.98 90.33,30.62 94.17,32.04 98,32.97 101.83,29.32 105.67,27.07 109.5,29.91 113.33,22.15 117.17,17.19 121,18.68 124.83,17.13 128.67,17.18 132.5,17.14 136.33,18.88 140.17,21.67 144,22.72" style="fill:none;stroke:#78BE20;stroke-width:3" />
<circle cx="144" cy="22.72" r="4" fill="white" stroke = "#78BE20" stroke-width="3"/>
</svg>
