<svg  height = "50"  width = "150"  version = "1.1"  xmlns = "http://www.w3.org/2000/svg">
<polyline points="6,25.28 9.83,38.33 13.67,44 17.5,36.58 21.33,28.91 25.17,19.76 29,16.07 32.83,10.99 36.67,14.85 40.5,10.57 44.33,6 48.17,17.66 52,20.95 55.83,15.6 59.67,7.15 63.5,14.99 67.33,18.17 71.17,17.98 75,23.3 78.83,22.29 82.67,26.07 86.5,30.9 90.33,27.2 94.17,26.43 98,10.35 101.83,9.16 105.67,25.83 109.5,28.99 113.33,30.95 117.17,42.17 121,38.6 124.83,41.68 128.67,37.02 132.5,32.38 136.33,28.74 140.17,15.07 144,21.33" style="fill:none;stroke:#004C97;stroke-width:3" />
<circle cx="144" cy="21.33" r="4" fill="white" stroke = "#004C97" stroke-width="3"/>
</svg>
