<svg  height = "50"  width = "150"  version = "1.1"  xmlns = "http://www.w3.org/2000/svg">
<polyline points="6,6 9.83,6.13 13.67,14.74 17.5,22.39 21.33,24.77 25.17,28.17 29,27.76 32.83,32.81 36.67,34.48 40.5,33.16 44.33,34.39 48.17,38.7 52,37.49 55.83,42.66 59.67,44 63.5,42.14 67.33,39.59 71.17,39.84 75,39.84 78.83,33.9 82.67,25.22 86.5,22.09 90.33,25.82 94.17,28.51 98,31.62 101.83,24.3 105.67,28.69 109.5,28.47 113.33,26.24 117.17,22.75 121,20.54 124.83,23.71 128.67,30.05 132.5,37.16 136.33,30.82 140.17,29.48 144,30.2" style="fill:none;stroke:#004C97;stroke-width:3" />
<circle cx="144" cy="30.2" r="4" fill="white" stroke = "#004C97" stroke-width="3"/>
</svg>
