<svg  height = "50"  width = "150"  version = "1.1"  xmlns = "http://www.w3.org/2000/svg">
<polyline points="6,6 9.83,7.32 13.67,12.29 17.5,21.01 21.33,24.42 25.17,28.95 29,31.94 32.83,31.99 36.67,30.96 40.5,32.52 44.33,40.62 48.17,43.08 52,43.23 55.83,39.02 59.67,36.46 63.5,31.17 67.33,30.72 71.17,26.62 75,26.6 78.83,26.56 82.67,21.96 86.5,22.64 90.33,22.63 94.17,22.62 98,25.04 101.83,30.79 105.67,33.39 109.5,38.72 113.33,40.83 117.17,44 121,37.98 124.83,35.02 128.67,41.81 132.5,41.84 136.33,39.82 140.17,39.85 144,37.12" style="fill:none;stroke:#78BE20;stroke-width:3" />
<circle cx="144" cy="37.12" r="4" fill="white" stroke = "#78BE20" stroke-width="3"/>
</svg>
