<svg  height = "50"  width = "150"  version = "1.1"  xmlns = "http://www.w3.org/2000/svg">
<polyline points="6,17.63 9.83,21.98 13.67,23.71 17.5,22.74 21.33,20.64 25.17,15.44 29,15.3 32.83,13.96 36.67,17.47 40.5,20.89 44.33,25.73 48.17,27.4 52,23.49 55.83,17.2 59.67,14.87 63.5,15.94 67.33,21.28 71.17,23.61 75,26.79 78.83,26.29 82.67,25.59 86.5,27.74 90.33,26.43 94.17,30.98 98,35.69 101.83,39.9 105.67,44 109.5,42.05 113.33,36.4 117.17,36.53 121,30.1 124.83,27.57 128.67,24.44 132.5,19.37 136.33,16.98 140.17,8.82 144,6" style="fill:none;stroke:#004C97;stroke-width:3" />
<circle cx="144" cy="6" r="4" fill="white" stroke = "#004C97" stroke-width="3"/>
</svg>
