<svg  height = "50"  width = "150"  version = "1.1"  xmlns = "http://www.w3.org/2000/svg">
<polyline points="6,6 9.83,10.73 13.67,13.64 17.5,16.24 21.33,17.69 25.17,16.17 29,17.68 32.83,19.7 36.67,21.62 40.5,24.27 44.33,26.75 48.17,31.94 52,34.35 55.83,36.75 59.67,35.57 63.5,34.7 67.33,38.62 71.17,40.88 75,43.35 78.83,44 82.67,42.91 86.5,41.22 90.33,39.07 94.17,37.41 98,34.99 101.83,31.73 105.67,30.97 109.5,30.56 113.33,25.08 117.17,23.27 121,15.85 124.83,12.44 128.67,11.45 132.5,9.25 136.33,8.01 140.17,9.27 144,9.31" style="fill:none;stroke:#78BE20;stroke-width:3" />
<circle cx="144" cy="9.31" r="4" fill="white" stroke = "#78BE20" stroke-width="3"/>
</svg>
