<svg  height = "50"  width = "150"  version = "1.1"  xmlns = "http://www.w3.org/2000/svg">
<polyline points="6,11.33 9.83,13.17 13.67,14.43 17.5,17.19 21.33,21.58 25.17,21.86 29,21.21 32.83,21.59 36.67,23.81 40.5,26.49 44.33,31.02 48.17,37.72 52,42.11 55.83,43.64 59.67,39.69 63.5,42.95 67.33,41.36 71.17,44 75,43.52 78.83,39 82.67,33.91 86.5,34.61 90.33,34.69 94.17,30.32 98,29.49 101.83,28.81 105.67,30.82 109.5,27.04 113.33,25.97 117.17,24.57 121,26.3 124.83,24.97 128.67,23.93 132.5,16.28 136.33,11.78 140.17,8.91 144,6" style="fill:none;stroke:#004C97;stroke-width:3" />
<circle cx="144" cy="6" r="4" fill="white" stroke = "#004C97" stroke-width="3"/>
</svg>
