<svg  height = "50"  width = "150"  version = "1.1"  xmlns = "http://www.w3.org/2000/svg">
<polyline points="6,44 9.83,39.3 13.67,36.08 17.5,34.6 21.33,30.42 25.17,29.89 29,29.54 32.83,27.14 36.67,25.02 40.5,25.06 44.33,23.45 48.17,16.09 52,12.8 55.83,10.35 59.67,8.95 63.5,6.8 67.33,6 71.17,6.28 75,7.25 78.83,9.64 82.67,12.19 86.5,11.48 90.33,11.18 94.17,15.09 98,18.45 101.83,21.73 105.67,22.58 109.5,23.98 113.33,27.95 117.17,28.68 121,30.01 124.83,31.42 128.67,33.02 132.5,35.8 136.33,37.49 140.17,36.49 144,35.78" style="fill:none;stroke:#78BE20;stroke-width:3" />
<circle cx="144" cy="35.78" r="4" fill="white" stroke = "#78BE20" stroke-width="3"/>
</svg>
