<svg  height = "50"  width = "150"  version = "1.1"  xmlns = "http://www.w3.org/2000/svg">
<polyline points="6,44 9.83,40.21 13.67,34.71 17.5,31.22 21.33,28.43 25.17,26.96 29,28.38 32.83,27.36 36.67,23.32 40.5,22.56 44.33,17.67 48.17,13.49 52,9.98 55.83,8.35 59.67,10.22 63.5,11.19 67.33,10.62 71.17,8.56 75,6.44 78.83,6.86 82.67,7.91 86.5,6 90.33,7.14 94.17,6.15 98,7.64 101.83,8.73 105.67,7.6 109.5,8.04 113.33,9.44 117.17,10.19 121,12.46 124.83,13.95 128.67,13.66 132.5,15.95 136.33,18.6 140.17,20.25 144,20.11" style="fill:none;stroke:#78BE20;stroke-width:3" />
<circle cx="144" cy="20.11" r="4" fill="white" stroke = "#78BE20" stroke-width="3"/>
</svg>
