<svg  height = "50"  width = "150"  version = "1.1"  xmlns = "http://www.w3.org/2000/svg">
<polyline points="6,41.13 9.83,41.72 13.67,42.59 17.5,43.37 21.33,44 25.17,42.46 29,41.37 32.83,39.75 36.67,37.34 40.5,34.75 44.33,29.86 48.17,25.1 52,22.45 55.83,20.03 59.67,15.19 63.5,11.17 67.33,8.03 71.17,6.5 75,6 78.83,6.46 82.67,7.35 86.5,8 90.33,8.85 94.17,8.76 98,9.14 101.83,10.48 105.67,13.46 109.5,15.32 113.33,15.77 117.17,17.98 121,18.67 124.83,19.18 128.67,19.1 132.5,19.4 136.33,19.39 140.17,19.86 144,21.26" style="fill:none;stroke:#CEDC00;stroke-width:3" />
<circle cx="144" cy="21.26" r="4" fill="white" stroke = "#CEDC00" stroke-width="3"/>
</svg>
