<svg  height = "50"  width = "150"  version = "1.1"  xmlns = "http://www.w3.org/2000/svg">
<polyline points="6,6 9.83,10.29 13.67,14.96 17.5,17.64 21.33,21.09 25.17,22.21 29,21.5 32.83,23.13 36.67,26.5 40.5,26.93 44.33,30.45 48.17,36.1 52,39.6 55.83,41.6 59.67,41.06 63.5,41.44 67.33,42.11 71.17,43.16 75,44 78.83,42.73 82.67,41.02 86.5,42.48 90.33,41.95 94.17,40.88 98,38.53 101.83,36.46 105.67,36.76 109.5,35.91 113.33,33.36 117.17,32.61 121,30.7 124.83,29.19 128.67,28.63 132.5,26.03 136.33,23.76 140.17,23.17 144,23.56" style="fill:none;stroke:#78BE20;stroke-width:3" />
<circle cx="144" cy="23.56" r="4" fill="white" stroke = "#78BE20" stroke-width="3"/>
</svg>
