<svg  height = "50"  width = "150"  version = "1.1"  xmlns = "http://www.w3.org/2000/svg">
<polyline points="6,44 9.83,42.03 13.67,40.75 17.5,39.62 21.33,38.64 25.17,37.06 29,35.87 32.83,34.39 36.67,32.36 40.5,30.85 44.33,27 48.17,23.12 52,20.83 55.83,19.4 59.67,18.05 63.5,16.33 67.33,14.31 71.17,13.01 75,12.11 78.83,11.27 82.67,10.92 86.5,10.28 90.33,10.23 94.17,9.42 98,9.36 101.83,9.5 105.67,8.93 109.5,9.2 113.33,9.64 117.17,9.65 121,9.38 124.83,9.26 128.67,8.77 132.5,8.27 136.33,7.37 140.17,6.67 144,6" style="fill:none;stroke:#004C97;stroke-width:3" />
<circle cx="144" cy="6" r="4" fill="white" stroke = "#004C97" stroke-width="3"/>
</svg>
