<svg  height = "50"  width = "150"  version = "1.1"  xmlns = "http://www.w3.org/2000/svg">
<polyline points="6,7.64 9.83,12.67 13.67,18.78 17.5,22.02 21.33,26.58 25.17,27.03 29,25.27 32.83,26.89 36.67,30.67 40.5,30.33 44.33,32.84 48.17,37.81 52,41.62 55.83,44 59.67,42.22 63.5,41.7 67.33,41.55 71.17,42.37 75,43.16 78.83,40.81 82.67,37.99 86.5,39.89 90.33,39.05 94.17,36.89 98,33.14 101.83,29.83 105.67,29.94 109.5,28.68 113.33,24.6 117.17,23.37 121,20.02 124.83,17.48 128.67,16.27 132.5,11.77 136.33,7.45 140.17,6 144,6.19" style="fill:none;stroke:#009CA6;stroke-width:3" />
<circle cx="144" cy="6.19" r="4" fill="white" stroke = "#009CA6" stroke-width="3"/>
</svg>
